<?xml version="1.0" standalone="no"?>
<!DOCTYPE svg PUBLIC "-//W3C//DTD SVG 20010904//EN"
 "http://www.w3.org/TR/2001/REC-SVG-20010904/DTD/svg10.dtd">
<svg version="1.0" xmlns="http://www.w3.org/2000/svg"
 width="1000.000000pt" height="1000.000000pt" viewBox="0 0 1000.000000 1000.000000"
 preserveAspectRatio="xMidYMid meet">
<metadata>
Created by potrace 1.13, written by Peter Selinger 2001-2015
</metadata>
<g transform="translate(0.000000,1000.000000) scale(0.100000,-0.100000)"
fill="#000000" stroke="none">
<path d="M4866 9353 c-57 -5 -80 -24 -110 -90 -16 -36 -17 -46 -6 -80 7 -21
16 -42 20 -48 11 -16 -4 -60 -23 -63 -26 -5 -47 17 -47 49 0 30 -33 96 -59
117 -39 32 -121 -11 -106 -57 5 -15 0 -23 -22 -34 -15 -7 -36 -12 -45 -10 -35
8 -64 -92 -33 -117 8 -7 15 -18 15 -24 0 -10 16 -22 70 -54 8 -5 46 -25 84
-43 46 -23 75 -44 86 -64 9 -16 39 -43 68 -60 28 -16 53 -33 57 -36 3 -3 -8
-33 -25 -66 -31 -60 -143 -173 -172 -173 -7 0 -22 -7 -32 -15 -11 -8 -26 -15
-33 -15 -8 0 -33 -9 -55 -20 -23 -11 -47 -20 -52 -20 -6 0 -22 -12 -35 -25
-13 -14 -33 -25 -46 -25 -32 0 -47 -22 -51 -77 -3 -37 1 -52 16 -68 l20 -21
-35 -34 c-19 -19 -35 -39 -35 -44 0 -6 -18 -30 -40 -54 -22 -24 -40 -45 -40
-49 0 -11 -124 -138 -142 -145 -10 -4 -15 -13 -12 -22 3 -8 1 -24 -6 -35 -9
-17 -15 -19 -30 -11 -27 15 -54 12 -89 -7 -27 -15 -30 -22 -25 -46 5 -22 0
-35 -19 -55 -13 -15 -41 -53 -62 -85 -33 -51 -36 -61 -26 -83 15 -33 14 -61
-2 -71 -7 -4 -21 -25 -31 -46 -10 -21 -30 -50 -46 -64 -16 -14 -41 -44 -56
-67 -27 -39 -41 -57 -98 -119 -14 -15 -26 -31 -26 -35 0 -13 -51 -62 -64 -62
-8 0 -19 7 -27 16 -15 18 -50 12 -90 -17 -34 -24 -41 -24 -57 2 -7 11 -34 29
-60 40 -26 11 -55 28 -65 37 -15 13 -21 14 -35 4 -9 -7 -27 -16 -39 -22 -22
-9 -33 -40 -14 -40 16 0 22 -49 9 -70 -10 -16 -10 -22 -1 -28 7 -4 16 -25 21
-47 4 -21 14 -41 21 -43 9 -3 11 0 6 8 -5 9 -4 11 3 6 7 -4 12 -16 12 -27 0
-37 110 -21 157 23 26 24 56 18 46 -9 -3 -10 -11 -22 -18 -28 -6 -5 -24 -30
-39 -55 -16 -25 -39 -61 -52 -81 -17 -24 -24 -47 -22 -70 3 -28 -1 -35 -18
-37 -22 -3 -48 -26 -68 -61 -34 -58 -87 -131 -104 -143 -11 -8 -26 -26 -33
-41 -11 -25 -14 -26 -30 -11 -9 8 -25 14 -36 12 -10 -2 -17 2 -15 10 5 26 -27
81 -57 96 -37 20 -64 20 -100 2 -43 -23 -54 -43 -53 -97 1 -49 1 -49 -32 -49
-21 0 -40 -8 -53 -22 -25 -28 -36 -58 -22 -58 6 0 9 -6 6 -14 -8 -20 18 -40
43 -33 12 3 23 -1 28 -10 7 -12 16 -13 53 -3 24 6 53 15 64 19 58 25 86 33
102 27 14 -6 11 -13 -20 -44 -20 -21 -37 -41 -37 -44 0 -3 -15 -22 -32 -41
-57 -62 -95 -111 -113 -146 -9 -19 -36 -55 -59 -80 -24 -25 -54 -66 -67 -91
-13 -25 -29 -49 -35 -55 -28 -27 -84 -105 -84 -118 0 -8 -17 -36 -39 -63 -21
-27 -41 -59 -45 -72 -4 -12 -20 -29 -36 -37 -21 -11 -31 -25 -36 -53 -4 -20
-24 -68 -45 -105 -22 -38 -39 -71 -39 -73 0 -3 -9 -17 -21 -33 -11 -15 -21
-34 -23 -42 -1 -8 -20 -33 -42 -57 -22 -24 -46 -59 -53 -79 -7 -19 -23 -56
-34 -82 -12 -25 -20 -52 -19 -59 2 -7 -4 -15 -13 -18 -8 -3 -15 -13 -15 -21 0
-8 -16 -48 -35 -88 -20 -41 -42 -99 -50 -130 -13 -49 -33 -82 -96 -159 -4 -4
-16 1 -27 12 -16 16 -29 19 -64 15 -23 -3 -44 -10 -46 -14 -7 -17 -37 -9 -64
16 -45 42 -96 24 -86 -30 4 -19 1 -25 -13 -25 -25 0 -32 -15 -14 -30 8 -7 15
-18 15 -25 0 -14 89 -75 109 -75 7 0 24 9 38 20 25 19 83 28 83 13 0 -5 -7
-16 -15 -26 -7 -11 -11 -25 -8 -33 3 -8 -2 -22 -10 -32 -8 -9 -19 -29 -22 -45
-4 -15 -11 -30 -16 -33 -5 -3 -9 -14 -9 -25 0 -10 -4 -27 -9 -37 -6 -9 -19
-37 -29 -62 -11 -25 -31 -71 -46 -102 -14 -31 -26 -59 -26 -63 0 -3 -7 -16
-15 -29 -14 -21 -20 -22 -58 -15 l-42 8 -75 -78 c-58 -59 -78 -87 -87 -121
-10 -42 -10 -116 0 -127 3 -2 32 -7 64 -10 32 -2 61 -8 65 -11 10 -11 -10
-103 -29 -131 -50 -74 -60 -102 -80 -219 -3 -18 -9 -35 -14 -38 -5 -3 -9 -14
-9 -25 0 -11 -8 -31 -17 -45 -14 -22 -14 -27 -2 -36 11 -7 11 -11 1 -15 -17
-7 -59 -91 -67 -135 -4 -20 -14 -39 -22 -42 -9 -4 -13 -13 -9 -22 3 -9 0 -28
-8 -42 -38 -75 -64 -157 -67 -213 -1 -24 -7 -50 -12 -56 -5 -7 -6 -20 -3 -29
4 -10 -1 -25 -10 -35 -11 -13 -15 -28 -11 -48 5 -22 2 -33 -11 -40 -10 -6 -17
-24 -19 -48 -2 -45 -9 -84 -28 -173 -29 -135 -33 -166 -29 -205 7 -54 6 -75
-5 -185 -5 -52 -6 -99 -3 -104 3 -5 7 -21 8 -35 1 -14 5 -48 9 -76 5 -38 2
-62 -12 -99 -18 -44 -25 -51 -70 -68 -63 -23 -86 -62 -59 -102 16 -25 7 -44
-14 -31 -22 14 2 -147 27 -179 10 -13 38 -49 63 -81 25 -32 55 -74 66 -94 15
-25 29 -36 45 -36 13 0 26 -3 29 -6 17 -20 119 -97 123 -92 3 3 21 0 40 -6 66
-22 102 -82 38 -66 -14 4 -69 13 -121 21 -52 7 -136 20 -186 29 -90 15 -92 15
-139 -7 -80 -39 -85 -42 -91 -62 -8 -24 27 -136 42 -136 6 0 34 7 63 16 56 16
102 13 176 -11 22 -7 115 -16 210 -19 225 -9 233 -10 247 -28 8 -9 51 -23 103
-33 50 -9 96 -22 103 -28 7 -6 32 -11 55 -13 62 -3 138 -22 157 -39 9 -8 20
-15 25 -15 5 0 17 -8 27 -17 10 -9 26 -17 36 -18 34 -4 98 -25 128 -44 30 -18
196 -47 213 -37 4 3 48 8 96 11 48 2 93 9 99 13 6 5 34 10 61 11 48 1 77 9
140 36 17 8 44 17 60 21 17 4 35 10 40 14 6 3 33 15 60 25 28 10 61 26 75 35
36 24 62 33 88 31 21 -2 42 3 107 29 54 21 110 30 190 30 108 0 149 12 214 61
38 29 64 40 104 45 70 9 172 10 228 3 71 -10 94 -2 114 39 9 21 18 57 20 82 1
25 4 50 5 55 6 23 -2 35 -30 50 -16 9 -30 22 -30 29 0 7 -7 19 -15 26 -18 15
-51 82 -60 125 -4 17 -13 45 -22 63 -8 18 -13 41 -11 50 2 10 -5 31 -15 46
-10 15 -16 30 -13 33 3 3 0 15 -7 27 -6 11 -13 37 -14 56 -4 75 -15 156 -23
175 -14 34 -18 65 -9 70 4 3 6 11 3 18 -2 7 2 21 10 32 12 17 12 24 1 46 -14
27 -10 69 7 69 5 0 4 10 -3 21 -13 25 -5 111 17 173 11 29 14 75 12 161 -2 84
1 129 11 150 7 17 15 52 17 78 2 27 9 58 15 68 5 11 9 41 9 67 -1 26 3 62 9
81 6 19 8 38 5 42 -3 5 2 22 11 39 24 46 33 113 24 174 -8 45 -6 62 12 102 33
78 35 79 87 36 25 -20 42 -31 38 -24 -5 8 1 12 23 12 40 0 84 52 78 93 -2 16
4 45 15 65 10 20 18 52 18 70 0 30 3 34 21 29 12 -3 22 0 26 9 13 33 52 -2 53
-47 0 -15 9 -38 21 -53 17 -22 28 -26 62 -25 53 3 77 15 77 39 0 23 15 29 57
22 32 -5 59 15 103 76 11 16 28 22 65 24 l50 3 6 -35 c10 -62 20 -80 43 -80
12 0 32 -7 44 -16 21 -14 24 -14 52 8 16 13 29 30 29 39 1 25 45 59 76 59 15
0 43 -11 61 -25 55 -42 142 -28 130 21 -5 17 -2 24 9 24 8 0 15 -4 15 -8 0 -5
17 -10 38 -11 20 -1 53 -4 72 -7 74 -10 155 -12 166 -3 6 5 25 4 45 -1 19 -5
66 -9 104 -9 39 1 125 1 193 0 67 -1 125 0 130 2 22 13 84 15 132 4 54 -12 55
-13 70 -63 8 -28 21 -58 29 -68 17 -20 17 -53 1 -111 -7 -24 -10 -60 -8 -79 2
-20 1 -37 -3 -38 -7 -3 -17 -167 -23 -349 l-2 -86 47 -21 c53 -25 82 -28 97
-9 19 23 42 122 48 202 6 85 10 99 19 69 4 -10 10 -26 15 -36 5 -9 6 -32 3
-52 -3 -21 -1 -42 6 -50 7 -8 8 -17 3 -20 -10 -6 -10 -416 1 -433 4 -6 4 -18
1 -27 -3 -9 -2 -22 3 -29 6 -6 11 -50 13 -97 4 -127 6 -151 18 -200 15 -64 37
-113 65 -146 13 -16 37 -51 52 -79 16 -27 38 -61 50 -75 12 -14 38 -55 59 -92
20 -37 60 -89 88 -115 29 -26 64 -60 77 -76 14 -15 85 -56 158 -92 73 -36 145
-76 160 -88 35 -29 229 -106 297 -118 28 -5 80 -15 116 -21 36 -7 124 -12 197
-12 122 -1 134 1 163 22 23 18 38 22 61 17 28 -6 122 5 219 26 55 13 315 116
426 170 99 49 146 87 217 182 31 39 92 108 137 152 45 44 86 90 91 103 5 12
19 26 31 31 26 10 63 43 71 63 5 10 9 9 19 -3 12 -15 16 -15 39 5 34 28 119
188 119 225 0 15 9 40 21 55 26 33 58 116 69 178 5 26 13 56 19 67 6 11 11 29
11 40 0 11 8 24 17 29 14 8 15 15 5 38 -14 38 -11 71 12 116 17 33 18 41 6 84
-9 30 -20 48 -32 52 -22 5 -21 2 -4 43 12 28 12 36 0 55 -13 19 -13 22 1 28
11 4 13 10 6 23 -16 30 -24 57 -22 72 3 18 -34 57 -69 71 -15 6 -33 22 -40 36
-8 13 -17 24 -21 24 -4 0 -10 10 -13 23 -3 12 -24 42 -45 67 -37 42 -59 98
-54 140 1 8 4 31 7 51 2 20 -2 61 -9 92 -7 31 -9 57 -4 59 5 2 2 23 -5 48 -11
38 -18 46 -44 51 -45 9 -57 -2 -44 -40 6 -17 7 -33 2 -36 -12 -8 -63 42 -58
56 2 7 -1 33 -8 58 -9 38 -15 45 -33 43 -11 -2 -21 2 -21 7 0 6 9 11 20 11 16
0 18 4 11 17 -5 10 -14 36 -21 58 -25 86 -66 172 -105 223 -63 84 -106 164
-100 189 5 23 -98 225 -140 273 -12 14 -28 46 -35 73 -7 26 -16 50 -20 52 -5
3 -6 14 -3 25 4 14 0 20 -11 20 -10 0 -15 4 -11 9 9 16 -26 62 -90 121 -33 30
-66 64 -74 75 -8 11 -28 32 -43 47 -15 14 -28 31 -28 38 0 7 -8 9 -19 5 -17
-5 -18 -1 -17 42 2 26 -2 54 -8 62 -6 7 -15 23 -21 34 -5 12 -21 24 -35 27
-19 5 -24 12 -22 29 1 15 -7 32 -23 47 -14 13 -25 34 -25 49 0 30 -44 79 -65
71 -8 -3 -12 0 -9 7 2 7 -11 28 -28 48 -44 49 -54 67 -63 116 -4 29 -14 47
-32 58 -19 13 -23 22 -19 40 3 13 2 26 -2 29 -5 3 -14 31 -21 63 -25 117 -31
131 -61 135 -19 3 -31 -2 -39 -14 -15 -24 -31 -23 -31 2 0 11 -4 20 -8 20 -5
0 -15 12 -22 28 -28 56 -102 172 -110 172 -5 0 -12 10 -16 23 -3 12 -21 40
-38 62 -18 22 -45 65 -60 97 -16 31 -37 58 -47 61 -11 3 -19 14 -19 25 0 10
-9 27 -20 37 -11 10 -20 26 -20 37 0 10 -4 18 -8 18 -4 0 -14 16 -21 35 -7 19
-21 40 -32 46 -12 6 -18 17 -15 25 3 8 -9 25 -29 41 -19 16 -35 33 -35 39 0 6
-6 17 -14 23 -8 7 -19 34 -26 60 -8 35 -18 51 -36 59 -13 7 -24 18 -24 26 0
18 -19 53 -52 96 -14 19 -43 66 -63 104 -20 37 -51 83 -70 101 -19 17 -43 52
-54 76 -10 24 -36 62 -58 83 -21 21 -38 44 -38 51 0 19 -158 215 -215 268 -29
26 -59 47 -67 47 -7 0 -13 6 -12 13 3 28 -4 40 -67 104 -36 36 -74 84 -85 105
-11 21 -47 66 -79 98 -33 33 -60 64 -60 69 0 5 -22 30 -50 57 -27 27 -50 53
-50 57 0 18 -154 192 -171 195 -11 2 -16 9 -12 17 3 8 -7 29 -21 46 -14 17
-26 35 -26 40 0 5 -7 9 -15 9 -8 0 -15 6 -15 13 0 16 -151 167 -168 167 -6 0
-12 11 -12 24 0 16 -16 36 -55 67 -48 38 -55 48 -55 79 0 20 5 41 10 46 6 6
13 30 16 53 3 24 9 62 13 85 9 47 -3 71 -56 125 -18 18 -33 38 -33 46 0 7 -6
18 -14 24 -12 10 -17 8 -27 -11 -16 -31 -30 -38 -50 -27 -26 13 -34 -22 -15
-60 15 -27 15 -31 -1 -39 -12 -7 -15 -18 -10 -46 7 -42 -3 -46 -35 -12 -13 14
-39 37 -58 53 -20 15 -55 49 -79 75 -47 51 -46 54 10 90 18 12 28 29 33 56 10
65 46 79 66 26 7 -19 17 -24 43 -24 18 0 40 6 48 13 29 24 89 106 89 121 0 20
36 39 61 33 14 -4 19 0 19 15 0 10 5 16 10 13 6 -3 10 -1 10 4 0 15 -37 51
-52 51 -26 1 -66 46 -72 82 -7 36 -20 49 -43 41 -15 -5 -17 -43 -3 -43 6 0 10
-7 10 -15 0 -17 -45 -21 -55 -5 -12 20 -36 9 -47 -20 -10 -29 -12 -30 -53 -25
-24 3 -55 9 -68 14 -14 5 -28 7 -31 4 -3 -3 -12 -1 -19 6 -8 6 -21 9 -30 5 -8
-3 -18 -1 -21 5 -4 6 -19 8 -34 5 -20 -4 -30 0 -37 14 -42 80 -56 114 -65 165
-9 42 -16 57 -28 57 -9 0 -26 7 -36 15 -11 8 -22 14 -25 13 -3 -1 -28 -3 -55
-5z m-236 -163 c0 -5 -5 -10 -11 -10 -5 0 -7 5 -4 10 3 6 8 10 11 10 2 0 4 -4
4 -10z m-30 -20 c0 -5 -2 -10 -4 -10 -3 0 -8 5 -11 10 -3 6 -1 10 4 10 6 0 11
-4 11 -10z m-80 -140 c0 -5 -4 -10 -9 -10 -6 0 -13 5 -16 10 -3 6 1 10 9 10 9
0 16 -4 16 -10z m424 -17 c10 -26 -17 -48 -43 -34 -26 14 -27 27 -3 40 25 15
39 13 46 -6z m291 -3 c3 -5 1 -10 -4 -10 -6 0 -11 5 -11 10 0 6 2 10 4 10 3 0
8 -4 11 -10z m-670 -10 c3 -5 1 -10 -4 -10 -6 0 -11 5 -11 10 0 6 2 10 4 10 3
0 8 -4 11 -10z m146 -63 c-13 -13 -26 -3 -16 12 3 6 11 8 17 5 6 -4 6 -10 -1
-17z m509 -417 c0 -5 -5 -10 -11 -10 -5 0 -7 5 -4 10 3 6 8 10 11 10 2 0 4 -4
4 -10z m53 -151 c48 -49 92 -89 97 -89 6 0 10 -4 10 -8 0 -11 35 -52 44 -52
14 0 76 -55 76 -67 0 -7 -3 -13 -7 -13 -14 0 -33 -53 -33 -88 0 -18 -4 -32 -9
-30 -16 6 -90 106 -105 143 -22 51 -72 113 -108 131 -25 13 -35 14 -53 4 -26
-14 -38 -9 -89 38 -37 33 -47 62 -22 62 8 0 29 15 47 34 20 22 38 32 48 29 9
-3 55 -46 104 -94z m-479 -117 c-4 -9 -6 -20 -6 -24 2 -10 -2 -10 -22 -2 -13
5 -12 10 7 36 22 29 36 23 21 -10z m146 -106 c0 -3 -4 -8 -10 -11 -5 -3 -10
-1 -10 4 0 6 5 11 10 11 6 0 10 -2 10 -4z m-400 -35 c0 -5 9 -13 20 -16 11 -3
20 -15 20 -25 0 -23 16 -35 23 -18 3 7 6 -8 6 -34 1 -43 -2 -49 -48 -90 -26
-24 -56 -59 -67 -78 -10 -19 -35 -55 -54 -80 -20 -25 -44 -58 -55 -74 -11 -16
-29 -41 -40 -56 -48 -66 -99 -146 -99 -157 -1 -7 -23 -31 -49 -53 l-49 -40
-53 30 c-30 17 -64 30 -77 30 -28 -1 -78 -43 -78 -65 0 -9 -5 -25 -10 -36 -8
-14 -6 -28 8 -56 11 -21 23 -56 27 -78 4 -22 12 -46 17 -53 6 -7 8 -16 4 -19
-4 -4 -11 -2 -15 5 -9 15 -35 -10 -45 -45 -4 -13 -11 -23 -16 -23 -5 0 -14
-17 -20 -37 -7 -21 -23 -49 -36 -63 -12 -14 -48 -63 -78 -110 -84 -129 -79
-124 -107 -117 -13 3 -33 15 -44 25 -13 11 -36 19 -60 20 -45 1 -116 -25 -113
-42 0 -6 -2 -22 -6 -36 -5 -19 2 -45 25 -95 49 -103 48 -118 -13 -210 -63 -97
-138 -241 -138 -266 0 -9 -7 -30 -15 -46 -8 -15 -24 -49 -35 -75 -11 -26 -24
-50 -30 -53 -5 -3 -10 -17 -10 -29 0 -34 -28 -97 -57 -128 -15 -15 -23 -33
-20 -42 4 -10 -1 -16 -14 -18 -19 -3 -32 -22 -82 -123 -31 -61 -69 -131 -77
-140 -5 -5 -12 -24 -16 -40 -4 -17 -24 -63 -46 -103 -21 -39 -38 -78 -38 -85
0 -8 -9 -22 -19 -31 -11 -10 -17 -24 -14 -31 6 -17 -27 -75 -43 -75 -7 0 -22
15 -33 33 -28 44 -63 74 -93 82 -36 9 -99 -53 -122 -120 -10 -27 -28 -71 -42
-97 -27 -51 -48 -144 -37 -161 4 -7 8 -27 9 -45 1 -18 9 -41 18 -51 10 -11 19
-28 21 -38 2 -10 4 -18 5 -18 1 0 3 -11 5 -25 3 -24 -12 -79 -25 -90 -3 -3
-14 -25 -24 -50 -10 -25 -22 -53 -27 -62 -5 -10 -13 -26 -18 -35 -5 -10 -17
-38 -26 -63 -9 -25 -22 -54 -27 -64 -6 -11 -28 -53 -50 -95 -62 -118 -60 -116
-92 -82 -15 15 -46 34 -69 41 -23 8 -51 21 -62 30 -28 24 -100 50 -135 50 -24
0 -33 -6 -42 -27 -7 -16 -18 -36 -26 -45 -17 -21 -12 -81 11 -128 9 -17 19
-52 23 -78 4 -26 14 -62 22 -82 9 -19 15 -39 13 -44 -1 -6 10 -35 25 -65 15
-31 32 -66 38 -79 13 -30 -13 -187 -49 -292 -25 -73 -52 -184 -59 -245 -4 -39
-16 -75 -26 -75 -14 0 -42 39 -72 101 -17 34 -45 76 -62 94 -20 20 -41 58 -55
101 -32 95 -71 172 -97 193 -16 13 -20 22 -13 32 5 8 8 38 7 67 -1 48 2 57 36
97 20 25 38 55 39 68 0 12 6 25 12 29 5 4 10 11 10 15 2 20 20 60 52 115 22
38 32 65 28 78 -4 12 -2 20 5 20 6 0 15 11 20 25 5 14 14 25 20 25 5 0 10 9
10 19 0 20 78 181 105 216 9 11 21 38 27 60 7 22 27 62 45 89 18 26 33 54 33
61 0 7 9 23 19 37 13 16 18 33 14 47 -4 15 2 30 18 47 15 16 22 35 21 53 -1
16 5 34 13 41 8 7 15 17 15 22 0 22 81 171 115 212 19 24 35 51 35 60 0 9 7
19 16 23 9 3 24 25 35 49 12 29 34 55 64 76 25 17 45 39 45 49 0 9 11 24 25
33 31 21 35 66 5 66 -24 0 -17 24 16 59 13 12 26 32 29 42 4 10 10 19 14 19
14 0 52 80 47 98 -4 12 5 24 29 40 19 12 35 27 35 34 0 6 20 30 44 52 45 41
116 137 116 156 0 5 4 10 10 10 5 0 19 17 30 38 23 41 57 91 91 136 13 16 22
37 22 48 -1 11 5 18 17 18 11 0 20 10 24 24 3 14 33 52 66 86 33 34 60 66 60
72 0 5 20 33 45 60 25 28 48 61 51 74 3 12 16 29 28 37 22 15 86 124 86 147 0
6 11 26 25 44 14 18 25 39 25 45 0 7 23 33 50 58 28 25 50 52 50 61 0 10 16
33 36 52 19 19 38 47 41 63 4 18 15 32 29 38 13 4 24 14 24 21 0 7 14 22 30
33 16 11 30 24 30 29 0 4 11 17 25 28 14 11 35 36 46 56 23 43 62 98 90 128
10 11 19 24 19 28 0 11 61 89 77 99 7 4 13 12 13 17 0 5 11 21 25 36 14 15 25
35 25 45 0 10 16 31 36 46 19 15 44 45 55 66 11 21 35 54 52 73 41 43 69 77
82 97 55 86 100 143 161 204 59 59 78 73 103 73 17 0 31 -4 31 -9z m1144 -151
c17 -17 52 -51 79 -76 26 -25 47 -50 47 -56 0 -6 11 -8 28 -4 19 5 23 4 13 -3
-12 -8 -5 -23 35 -83 27 -40 72 -96 101 -124 29 -28 53 -54 53 -56 0 -3 19
-24 41 -48 23 -24 56 -67 75 -96 21 -33 44 -56 63 -62 23 -8 28 -15 24 -32 -4
-15 0 -23 13 -26 11 -3 33 -27 49 -54 17 -27 35 -50 40 -50 27 -2 81 -72 69
-91 -7 -13 44 -61 57 -54 8 5 14 -29 10 -60 0 -6 14 -19 31 -30 22 -13 28 -20
18 -23 -8 -3 -18 -9 -21 -15 -4 -5 -24 15 -46 44 -22 30 -47 60 -56 68 -10 7
-17 22 -17 32 0 11 -7 19 -15 19 -8 0 -19 9 -25 20 -6 11 -20 20 -30 20 -12 0
-20 7 -20 18 -1 19 -69 95 -103 113 -54 30 -257 221 -257 243 0 9 -3 16 -7 16
-10 0 -73 64 -110 110 -28 35 -45 63 -71 112 -7 15 -31 47 -53 70 -21 23 -42
50 -45 60 -3 10 -9 18 -14 18 -4 0 -11 20 -14 45 -11 73 8 84 58 35z m-464
-10 c0 -5 -2 -10 -4 -10 -3 0 -8 5 -11 10 -3 6 -1 10 4 10 6 0 11 -4 11 -10z
m617 -86 c-3 -3 -12 -4 -19 -1 -8 3 -5 6 6 6 11 1 17 -2 13 -5z m-1022 -24 c3
-5 -1 -10 -9 -10 -9 0 -16 5 -16 10 0 6 4 10 9 10 6 0 13 -4 16 -10z m-58 -53
c11 -17 24 -47 28 -64 4 -18 11 -35 16 -38 5 -4 9 -16 9 -28 0 -20 -3 -18 -28
12 -61 76 -91 151 -59 151 6 0 22 -15 34 -33z m73 -9 c0 -16 -3 -19 -11 -11
-6 6 -8 16 -5 22 11 17 16 13 16 -11z m1100 -8 c0 -5 -4 -10 -10 -10 -5 0 -10
5 -10 10 0 6 5 10 10 10 6 0 10 -4 10 -10z m-846 -50 c13 -7 30 -23 37 -36 7
-13 16 -24 21 -24 4 0 8 -8 8 -17 0 -10 9 -29 20 -43 11 -14 20 -31 20 -38 0
-7 10 -33 21 -58 25 -52 14 -83 -15 -40 -15 25 -56 36 -56 17 0 -5 -10 -11
-22 -15 -16 -3 -32 -24 -51 -63 -15 -32 -27 -61 -27 -64 0 -13 -71 -124 -85
-131 -16 -10 -27 8 -69 111 -14 36 -32 68 -39 73 -8 5 -8 8 -1 8 6 0 9 10 7
24 -5 23 -2 24 44 25 79 1 96 4 116 24 16 16 17 23 7 53 -7 20 -10 49 -8 66 5
34 -16 102 -40 131 -8 9 -13 17 -11 18 2 0 19 2 37 4 19 1 39 8 45 15 9 8 13
7 15 -8 2 -11 14 -25 26 -32z m-1084 -20 c0 -5 -10 -10 -22 -9 -22 0 -22 1 -3
9 11 5 21 9 23 9 1 1 2 -3 2 -9z m1474 -22 c-4 -6 -10 -5 -15 3 -14 22 -10 33
6 19 8 -7 12 -17 9 -22z m-954 -18 c0 -5 -4 -10 -10 -10 -5 0 -10 5 -10 10 0
6 5 10 10 10 6 0 10 -4 10 -10z m1477 4 c-3 -3 -12 -4 -19 -1 -8 3 -5 6 6 6
11 1 17 -2 13 -5z m-1529 -93 c3 -8 -1 -12 -9 -9 -7 2 -15 10 -17 17 -3 8 1
12 9 9 7 -2 15 -10 17 -17z m155 -22 c15 -22 27 -47 27 -54 0 -7 9 -23 19 -37
11 -13 23 -38 27 -54 4 -16 15 -39 26 -50 11 -12 18 -28 16 -35 -3 -16 12 -60
46 -134 38 -82 48 -117 53 -182 4 -62 -6 -84 -30 -65 -7 5 -25 12 -40 16 -16
4 -38 16 -50 27 -12 12 -40 30 -63 40 -22 11 -68 45 -102 76 l-62 55 17 29
c10 16 24 29 31 29 12 0 12 3 1 16 -12 14 -9 20 18 43 31 26 31 27 13 39 -31
19 -47 14 -59 -18 -5 -16 -15 -30 -20 -30 -6 0 -25 -13 -43 -29 -33 -28 -34
-28 -69 -13 -21 9 -44 28 -54 44 -9 15 -25 28 -36 28 -39 0 -22 31 76 140 22
25 55 64 73 87 33 41 34 42 83 36 45 -5 51 -4 56 16 8 30 16 27 46 -20z m-733
1 c0 -5 -9 -10 -21 -10 -11 0 -17 5 -14 10 3 6 13 10 21 10 8 0 14 -4 14 -10z
m920 -240 c0 -5 -4 -10 -10 -10 -5 0 -10 5 -10 10 0 6 5 10 10 10 6 0 10 -4
10 -10z m1530 -50 c0 -5 -5 -10 -11 -10 -5 0 -7 5 -4 10 3 6 8 10 11 10 2 0 4
-4 4 -10z m-2323 -16 c-3 -3 -12 -4 -19 -1 -8 3 -5 6 6 6 11 1 17 -2 13 -5z
m243 -34 c-20 -13 -33 -13 -25 0 3 6 14 10 23 10 15 0 15 -2 2 -10z m-27 -55
c21 -9 42 -27 51 -46 15 -31 15 -33 -9 -57 -14 -14 -25 -28 -25 -32 0 -7 -45
-30 -60 -30 -14 0 -32 38 -35 74 -2 17 -7 43 -10 58 -6 23 -3 29 16 37 32 13
32 13 72 -4z m1272 5 c3 -5 -1 -10 -10 -10 -9 0 -13 5 -10 10 3 6 8 10 10 10
2 0 7 -4 10 -10z m349 -6 c4 -11 1 -14 -11 -12 -9 2 -18 9 -21 16 -6 18 25 15
32 -4z m656 -14 c0 -5 -2 -10 -4 -10 -3 0 -8 5 -11 10 -3 6 -1 10 4 10 6 0 11
-4 11 -10z m-793 -109 c10 -15 9 -22 -2 -31 -8 -7 -20 -31 -27 -54 -15 -52
-49 -99 -61 -87 -6 6 -6 22 -1 38 4 15 8 33 8 38 1 6 9 16 19 24 20 14 41 59
38 79 -3 18 13 14 26 -7z m-1301 -16 c10 -14 23 -25 28 -25 5 0 32 -21 61 -47
77 -71 152 -113 187 -106 24 5 28 2 28 -16 0 -15 11 -26 40 -37 28 -11 38 -20
31 -28 -5 -6 -12 -27 -16 -46 -4 -19 -23 -53 -41 -76 -19 -23 -34 -48 -34 -56
0 -8 -11 -37 -25 -64 -14 -27 -25 -58 -25 -69 0 -11 -12 -33 -25 -48 -21 -23
-28 -26 -42 -17 -17 11 -17 11 0 6 19 -6 24 9 6 20 -7 4 -9 21 -6 40 9 55 -38
70 -106 34 -44 -24 -57 -25 -57 -5 0 9 -11 27 -25 41 -14 14 -28 37 -31 52 -3
15 -17 51 -30 80 -13 29 -24 59 -24 67 0 9 -12 33 -27 56 -14 22 -28 56 -30
77 -3 33 2 43 47 91 27 30 50 57 50 59 0 8 32 42 40 42 4 0 16 -11 26 -25z
m1640 11 c0 -1 53 -70 79 -104 5 -7 43 -47 83 -89 39 -41 72 -79 72 -84 0 -5
5 -9 10 -9 6 0 14 -8 17 -17 4 -10 20 -31 36 -47 33 -34 46 -62 39 -88 -9 -37
-29 -22 -82 62 -19 30 -50 68 -68 84 -19 16 -49 53 -68 82 -18 30 -43 59 -54
66 -11 7 -20 16 -20 21 0 8 -11 23 -42 58 -10 10 -18 23 -18 28 0 5 -7 11 -15
15 -8 3 -15 13 -15 21 0 12 6 15 23 9 12 -3 22 -7 23 -8z m-2696 -35 c0 -6 -4
-13 -10 -16 -5 -3 -10 1 -10 9 0 9 5 16 10 16 6 0 10 -4 10 -9z m2890 -21 c0
-5 -7 -10 -16 -10 -8 0 -12 5 -9 10 3 6 10 10 16 10 5 0 9 -4 9 -10z m-2195
-30 c8 -16 15 -36 15 -44 0 -20 -50 -84 -123 -159 -31 -33 -57 -62 -57 -66 0
-4 -14 -18 -32 -31 -29 -21 -32 -22 -44 -6 -10 14 -6 25 23 69 19 29 39 62 44
75 5 12 13 22 18 22 6 0 26 24 46 53 69 101 80 116 87 117 4 0 14 -13 23 -30z
m605 -8 c0 -14 -11 -21 -26 -15 -8 3 -11 9 -8 14 7 11 34 12 34 1z m1975 -32
c4 -6 -5 -10 -19 -10 -14 0 -26 5 -26 10 0 6 9 10 19 10 11 0 23 -4 26 -10z
m95 -40 c0 -5 -2 -10 -4 -10 -3 0 -8 5 -11 10 -3 6 -1 10 4 10 6 0 11 -4 11
-10z m-2569 -182 c16 -18 26 -40 24 -48 -3 -8 4 -28 15 -45 11 -16 20 -40 20
-52 0 -13 4 -23 9 -23 5 0 7 -8 4 -19 -3 -10 6 -36 20 -57 13 -22 27 -54 30
-73 l7 -33 -38 7 c-20 3 -41 11 -46 16 -6 5 -23 9 -39 9 -39 0 -63 14 -127 75
-30 28 -61 54 -69 56 -18 6 -8 38 24 75 14 16 25 34 25 39 0 6 13 19 30 28 16
10 39 31 50 47 12 17 24 30 27 30 3 0 18 -15 34 -32z m2555 2 c18 0 32 -21 27
-41 -8 -30 -30 -22 -57 19 -26 41 -24 62 3 38 10 -9 22 -16 27 -16z m-2696
-15 c10 -12 10 -15 -4 -15 -9 0 -16 7 -16 15 0 8 2 15 4 15 2 0 9 -7 16 -15z
m40 1 c0 -3 -4 -8 -10 -11 -5 -3 -10 -1 -10 4 0 6 5 11 10 11 6 0 10 -2 10 -4z
m1720 -117 c0 -11 -4 -17 -10 -14 -5 3 -10 13 -10 21 0 8 5 14 10 14 6 0 10
-9 10 -21z m464 -38 c4 -9 20 -41 36 -71 16 -30 29 -63 29 -73 1 -25 -30 -35
-43 -13 -6 10 -20 30 -31 44 -25 32 -45 88 -45 124 0 26 2 27 24 17 13 -6 27
-19 30 -28z m126 29 c0 -5 -7 -10 -16 -10 -8 0 -12 5 -9 10 3 6 10 10 16 10 5
0 9 -4 9 -10z m-40 -50 c0 -5 -5 -10 -11 -10 -5 0 -7 5 -4 10 3 6 8 10 11 10
2 0 4 -4 4 -10z m-2589 -10 c14 0 11 -16 -12 -55 l-21 -36 -22 23 c-16 18 -18
25 -8 31 7 5 9 13 6 19 -8 13 16 29 34 23 8 -3 18 -5 23 -5z m2106 -22 c-3 -8
-6 -5 -6 6 -1 11 2 17 5 13 3 -3 4 -12 1 -19z m-2347 -32 c0 -3 -4 -8 -10 -11
-5 -3 -10 -1 -10 4 0 6 5 11 10 11 6 0 10 -2 10 -4z m857 -22 c-9 -9 -28 6
-21 18 4 6 10 6 17 -1 6 -6 8 -13 4 -17z m2153 -24 c0 -5 -4 -10 -10 -10 -5 0
-10 5 -10 10 0 6 5 10 10 10 6 0 10 -4 10 -10z m-493 -17 c-9 -9 -20 -13 -24
-9 -4 4 -1 11 7 16 25 16 35 11 17 -7z m-2087 -32 c12 -20 156 -121 173 -121
17 0 49 -15 77 -36 8 -7 38 -15 67 -19 51 -7 51 -7 43 -36 -14 -48 -155 -295
-209 -367 -24 -31 -41 -41 -41 -23 0 5 -16 32 -35 61 -19 29 -38 63 -41 76 -3
12 -17 30 -30 39 -13 8 -24 22 -24 29 0 7 -6 19 -14 25 -8 7 -21 35 -31 63 -9
28 -27 66 -41 83 -13 17 -21 34 -18 38 3 3 -2 19 -12 36 -17 28 -17 31 -1 49
9 10 17 28 17 40 0 11 12 35 27 52 22 27 31 31 57 26 16 -4 33 -10 36 -15z
m2134 -2 c-3 -5 -10 -7 -15 -3 -5 3 -7 10 -3 15 3 5 10 7 15 3 5 -3 7 -10 3
-15z m-1384 1 c0 -5 -2 -10 -4 -10 -3 0 -8 5 -11 10 -3 6 -1 10 4 10 6 0 11
-4 11 -10z m-1085 -42 c4 -18 11 -37 15 -43 4 -5 10 -20 13 -33 4 -18 2 -22
-10 -18 -21 8 -42 -22 -43 -59 0 -39 -34 -136 -66 -191 -13 -22 -24 -54 -24
-70 l0 -29 19 24 c12 16 24 22 36 18 26 -11 12 -31 -28 -41 -20 -5 -37 -15
-37 -22 0 -16 -30 -27 -44 -15 -6 4 -28 11 -48 15 -48 9 -55 22 -29 50 12 12
21 26 21 32 0 15 65 168 82 194 9 14 29 52 43 84 27 61 75 135 87 136 3 0 10
-15 13 -32z m2481 5 c-10 -10 -19 5 -10 18 6 11 8 11 12 0 2 -7 1 -15 -2 -18z
m660 -18 c9 -14 31 -34 50 -46 50 -30 66 -66 48 -102 -11 -19 -13 -46 -10 -87
6 -61 1 -90 -15 -90 -5 0 -9 6 -9 14 0 8 -8 22 -17 32 -10 9 -24 33 -31 53
-17 46 -72 242 -72 259 0 19 36 -3 56 -33z m-716 5 c0 -5 -7 -10 -16 -10 -8 0
-12 5 -9 10 3 6 10 10 16 10 5 0 9 -4 9 -10z m-1476 -15 c-7 -16 -24 -21 -24
-6 0 8 7 13 27 20 1 1 0 -6 -3 -14z m1922 -77 c3 -13 28 -46 54 -73 26 -28 55
-67 65 -88 9 -20 21 -37 25 -37 4 0 11 -12 14 -26 4 -14 25 -45 47 -69 40 -43
40 -45 34 -100 -5 -35 -13 -59 -22 -62 -8 -3 -12 -12 -9 -19 8 -20 -10 -26
-34 -12 -13 8 -19 22 -18 38 3 21 -2 26 -24 28 -41 5 -56 32 -48 92 4 28 3 53
-2 56 -5 3 -16 22 -26 42 -12 25 -30 43 -57 56 -46 21 -57 35 -49 56 4 8 6 27
5 42 -1 15 3 29 9 33 5 3 10 19 10 36 0 34 16 39 26 7z m-1298 -18 c12 -11 25
-20 29 -20 4 0 23 -13 41 -29 l32 -29 -2 -98 c-2 -55 -6 -101 -10 -105 -12 -8
20 -161 37 -179 8 -9 15 -22 15 -28 0 -7 16 -20 36 -29 34 -17 37 -17 72 2 33
18 38 26 50 83 l14 62 26 -16 c17 -9 37 -39 54 -77 14 -34 32 -63 40 -63 30
-3 32 -5 19 -13 -12 -8 -12 -14 2 -43 9 -19 21 -55 26 -81 11 -47 41 -108 67
-138 8 -9 14 -20 12 -25 -2 -5 8 -26 21 -47 18 -30 24 -57 28 -125 8 -150 6
-192 -9 -192 -5 0 -3 -10 4 -22 7 -13 13 -52 15 -88 4 -80 21 -135 48 -150 58
-30 80 -49 83 -68 2 -16 -2 -22 -15 -22 -17 -1 -17 -1 1 -15 25 -19 36 -105
13 -105 -9 0 -28 -15 -42 -34 -26 -35 -53 -46 -114 -51 -59 -4 -96 -61 -115
-176 -4 -19 -12 -44 -20 -54 -12 -17 -15 -17 -37 -2 -37 27 -60 20 -105 -28
l-41 -45 -81 0 c-72 0 -84 -3 -111 -26 -17 -14 -31 -21 -31 -16 0 7 -11 7 -32
1 -28 -8 -171 -21 -233 -20 -10 0 -24 -4 -30 -8 -22 -18 -80 -21 -103 -6 -17
12 -26 13 -42 5 -58 -31 -352 -5 -415 37 -11 7 -26 13 -33 13 -8 0 -47 16 -88
35 -40 19 -80 35 -89 35 -8 0 -15 7 -15 15 0 9 -9 15 -25 15 -14 0 -28 7 -31
15 -4 8 -14 15 -24 15 -44 0 -68 66 -46 130 8 25 13 55 9 68 -3 13 -1 27 5 31
6 4 14 36 18 71 4 43 13 72 25 85 10 11 39 40 63 65 25 25 52 62 60 82 9 20
20 40 26 43 6 4 8 10 5 15 -7 11 17 99 39 145 8 17 21 46 29 65 8 19 20 47 27
61 7 15 13 38 13 52 2 18 9 28 25 32 12 3 22 12 22 20 0 9 4 23 9 33 8 15 23
62 25 84 1 3 4 10 9 14 4 4 7 16 7 27 0 10 8 21 19 24 10 2 23 14 29 26 5 12
28 43 50 68 23 26 39 49 35 52 -3 4 2 18 11 31 9 14 16 31 16 38 0 8 20 33 45
56 25 23 45 49 45 57 0 8 5 15 10 15 13 0 83 77 92 101 4 11 11 19 16 19 5 0
12 14 16 30 3 18 12 30 21 30 14 0 95 75 95 89 0 3 10 17 23 31 52 59 96 118
90 123 -3 4 6 12 21 18 14 7 26 16 26 21 0 16 57 8 78 -12z m-218 -50 c0 -5
-8 -10 -17 -10 -15 0 -16 2 -3 10 19 12 20 12 20 0z m2270 -30 c0 -5 -4 -10
-10 -10 -5 0 -10 5 -10 10 0 6 5 10 10 10 6 0 10 -4 10 -10z m-935 -118 c-5
-28 -9 -31 -21 -22 -19 16 -18 42 3 88 l17 37 4 -34 c2 -19 1 -50 -3 -69z
m-2560 38 c1 -14 7 -27 47 -95 9 -16 31 -58 47 -92 17 -34 35 -64 40 -67 5 -3
12 -17 15 -32 4 -14 18 -44 32 -66 50 -78 62 -161 30 -197 -15 -17 -22 -18
-44 -8 -15 6 -34 16 -42 23 -8 6 -26 15 -39 19 -14 4 -39 22 -56 39 -17 17
-66 62 -108 101 -85 76 -92 94 -56 151 11 19 19 42 17 51 -2 9 7 28 18 40 12
13 25 40 29 60 4 21 16 44 27 51 11 8 17 21 14 29 -4 10 0 13 12 11 9 -2 17
-10 17 -18z m3435 -41 c0 -5 22 -19 49 -30 46 -20 88 -66 126 -140 5 -10 13
-19 17 -19 5 0 8 -5 8 -11 0 -6 11 -25 25 -43 26 -34 32 -56 16 -56 -5 0 -17
-21 -26 -47 -19 -56 -35 -153 -24 -153 15 0 -4 -41 -24 -51 -14 -8 -16 -13 -8
-19 10 -6 10 -16 -1 -49 -11 -31 -17 -38 -26 -29 -7 7 -12 22 -12 34 0 13 -4
26 -10 29 -5 3 -10 19 -10 34 0 15 -3 31 -7 35 -4 4 -13 31 -20 59 -25 110
-54 213 -64 230 -5 10 -7 27 -4 38 4 12 1 27 -9 38 -10 11 -16 39 -17 76 -1
33 -6 66 -12 73 -7 9 -4 12 12 12 11 0 21 -5 21 -11z m-2390 -39 c0 -4 -6 -10
-14 -13 -9 -4 -13 2 -13 19 0 20 2 22 13 13 8 -6 14 -15 14 -19z m2547 -42
c-3 -8 -6 -5 -6 6 -1 11 2 17 5 13 3 -3 4 -12 1 -19z m-4627 2 c0 -5 -5 -10
-11 -10 -5 0 -7 5 -4 10 3 6 8 10 11 10 2 0 4 -4 4 -10z m4240 -90 c-15 -10
-4 -30 16 -30 9 0 12 5 8 12 -4 7 -3 8 5 4 6 -4 9 -12 6 -17 -4 -5 1 -9 9 -9
9 0 16 -4 16 -9 0 -15 -62 -4 -72 13 -11 20 -1 59 14 50 7 -4 6 -9 -2 -14z
m-1570 -50 c0 -5 -2 -10 -4 -10 -3 0 -8 5 -11 10 -3 6 -1 10 4 10 6 0 11 -4
11 -10z m80 -10 c0 -5 -4 -10 -10 -10 -5 0 -10 5 -10 10 0 6 5 10 10 10 6 0
10 -4 10 -10z m1550 -60 c0 -5 -2 -10 -4 -10 -3 0 -8 5 -11 10 -3 6 -1 10 4
10 6 0 11 -4 11 -10z m20 -30 c0 -5 -4 -10 -10 -10 -5 0 -10 5 -10 10 0 6 5
10 10 10 6 0 10 -4 10 -10z m-3772 -70 c15 -20 28 -27 40 -24 13 5 14 4 3 -4
-9 -7 -10 -12 -2 -16 18 -11 13 -61 -9 -89 -11 -14 -20 -31 -20 -39 0 -7 -9
-24 -20 -38 -11 -14 -20 -32 -20 -41 0 -8 -7 -24 -15 -35 -8 -10 -15 -28 -15
-39 0 -12 -16 -59 -35 -105 -19 -46 -35 -89 -35 -96 0 -6 -7 -17 -16 -25 -9
-8 -14 -22 -11 -37 3 -14 -1 -26 -9 -29 -8 -3 -14 -13 -14 -22 0 -9 -7 -24
-14 -34 -14 -18 -15 -18 -42 0 -64 41 -101 101 -74 118 6 4 8 15 5 24 -3 10 1
24 10 31 8 7 15 21 15 31 0 10 4 20 9 24 5 3 15 22 21 43 7 20 17 42 24 47 20
19 45 75 40 90 -4 8 1 18 10 21 9 3 16 11 16 16 0 5 8 22 19 36 10 15 26 48
35 74 8 26 25 64 36 85 11 21 20 43 20 50 0 23 26 14 48 -17z m3426 -24 c-6
-16 -24 -23 -24 -8 0 10 22 33 27 28 2 -2 1 -11 -3 -20z m-3138 -34 c12 -9 24
-25 27 -34 4 -10 14 -18 24 -18 10 0 47 -22 83 -50 36 -27 70 -49 76 -50 7 0
15 -10 19 -22 4 -14 8 -18 12 -10 6 16 23 15 23 -2 0 -8 11 -17 25 -20 20 -5
25 -12 25 -40 0 -21 -6 -36 -15 -40 -8 -3 -12 -11 -9 -19 3 -8 -2 -20 -11 -27
-8 -7 -15 -22 -15 -34 0 -11 -7 -30 -15 -40 -8 -11 -15 -29 -15 -40 0 -18 -1
-18 -25 4 -14 13 -25 29 -25 36 0 7 -6 19 -13 26 -7 7 -19 33 -27 58 -8 25
-29 63 -47 86 -18 23 -33 46 -33 53 0 6 -4 11 -10 11 -5 0 -17 16 -26 36 -9
20 -27 40 -38 45 -40 19 -64 109 -28 109 9 0 26 -8 38 -18z m3458 -76 c14 -19
26 -41 26 -49 0 -20 65 -148 88 -172 14 -16 16 -27 10 -53 -5 -17 -13 -32 -18
-32 -13 0 -70 -86 -70 -107 -1 -10 -9 -35 -18 -55 -17 -35 -19 -36 -30 -18 -7
11 -12 27 -12 35 0 8 -4 15 -10 15 -5 0 -10 22 -10 49 0 27 -4 61 -10 76 -13
34 -26 207 -21 287 1 26 24 58 41 58 4 0 19 -15 34 -34z m207 -33 c13 -16 12
-17 -3 -4 -10 7 -18 15 -18 17 0 8 8 3 21 -13z m481 -128 c19 -36 20 -44 8
-107 -7 -37 -17 -68 -21 -68 -4 0 -3 -17 2 -37 9 -43 6 -48 -36 -57 -16 -4
-25 -3 -19 1 6 4 15 22 21 39 9 25 8 33 -8 45 -13 11 -19 30 -20 65 -1 27 -5
54 -9 59 -12 17 -15 113 -4 147 6 20 8 20 36 -13 17 -19 39 -52 50 -74z
m-4245 53 c13 -12 23 -29 23 -38 0 -9 14 -29 30 -45 17 -16 30 -36 30 -45 0
-9 14 -37 30 -63 17 -26 30 -50 30 -54 0 -10 87 -93 98 -93 37 0 14 -112 -51
-249 -20 -42 -45 -50 -162 -53 -148 -3 -216 15 -267 72 -21 23 -38 45 -38 48
0 4 9 18 19 31 10 14 17 31 14 38 -3 8 1 21 9 31 15 18 38 71 60 137 7 22 20
45 28 52 8 6 12 15 8 19 -4 3 2 18 12 32 11 13 20 31 20 39 0 8 11 38 24 66
13 29 27 62 31 75 8 28 22 28 52 0z m4323 12 c0 -5 -7 -10 -15 -10 -8 0 -15 5
-15 10 0 6 7 10 15 10 8 0 15 -4 15 -10z m-5460 -20 c0 -5 -5 -10 -11 -10 -5
0 -7 5 -4 10 3 6 8 10 11 10 2 0 4 -4 4 -10z m1210 -36 c0 -8 -4 -14 -9 -14
-11 0 -22 26 -14 34 9 9 23 -3 23 -20z m3640 -64 c0 -5 -2 -10 -4 -10 -3 0 -8
5 -11 10 -3 6 -1 10 4 10 6 0 11 -4 11 -10z m-4470 -40 c0 -5 -4 -10 -10 -10
-5 0 -10 5 -10 10 0 6 5 10 10 10 6 0 10 -4 10 -10z m4793 -88 c6 -7 11 -23
12 -35 1 -12 5 -44 9 -72 8 -49 7 -49 -9 -27 -9 13 -15 29 -12 35 3 7 -6 23
-19 36 -13 13 -24 32 -24 42 0 10 -4 19 -10 19 -17 0 -11 26 13 56 l22 29 3
-35 c2 -19 9 -41 15 -48z m-5253 -6 c0 -3 -4 -8 -10 -11 -5 -3 -10 -1 -10 4 0
6 5 11 10 11 6 0 10 -2 10 -4z m5620 -56 c0 -13 -28 -25 -38 -16 -3 4 0 11 8
16 20 13 30 12 30 0z m-5120 -71 c0 -19 -47 -114 -63 -128 -14 -11 -17 -9 -21
11 -12 56 22 128 61 128 13 0 23 -5 23 -11z m3406 -46 c-10 -10 -19 5 -10 18
6 11 8 11 12 0 2 -7 1 -15 -2 -18z m54 -3 c0 -5 -4 -10 -10 -10 -5 0 -10 5
-10 10 0 6 5 10 10 10 6 0 10 -4 10 -10z m1795 -10 c-3 -5 -13 -10 -21 -10 -8
0 -12 5 -9 10 3 6 13 10 21 10 8 0 12 -4 9 -10z m-769 -42 c4 4 2 -1 -5 -10
-7 -10 -15 -33 -16 -50 -4 -48 -4 -48 -15 -48 -5 0 -7 17 -5 38 2 20 4 48 4
61 1 18 4 21 14 12 8 -6 18 -7 23 -3z m-4334 -48 c7 -11 18 -20 25 -20 7 0 13
-5 13 -12 0 -6 15 -24 32 -39 l33 -27 -40 -78 c-22 -44 -40 -86 -40 -95 0 -9
-5 -22 -11 -30 -6 -8 -17 -31 -23 -51 -7 -21 -15 -38 -18 -38 -10 0 -47 45
-59 71 -7 13 -23 51 -37 83 -26 60 -26 60 -6 87 10 15 19 34 19 42 0 9 3 17 8
19 4 2 18 27 31 56 26 56 51 67 73 32z m4578 -17 c0 -13 -3 -13 -15 -3 -8 7
-15 19 -15 27 0 13 3 13 15 3 8 -7 15 -19 15 -27z m374 -88 c1 -11 8 -37 15
-58 9 -26 10 -42 3 -50 -7 -8 -6 -20 3 -37 8 -14 14 -37 15 -53 0 -15 5 -36
12 -47 7 -10 9 -22 5 -26 -7 -8 -39 27 -59 66 -7 14 -25 35 -40 48 -16 13 -28
31 -28 39 0 9 -6 13 -15 10 -8 -4 -17 -2 -20 3 -4 6 -2 10 3 10 14 0 52 85 56
126 2 22 7 48 12 58 6 16 10 11 21 -25 8 -24 15 -53 17 -64z m46 95 c0 -5 -2
-10 -4 -10 -3 0 -8 5 -11 10 -3 6 -1 10 4 10 6 0 11 -4 11 -10z m100 -15 c0
-8 9 -20 20 -28 11 -7 27 -30 35 -51 l16 -37 19 23 c22 26 25 20 9 -16 -15
-33 -7 -59 41 -134 23 -35 46 -78 52 -95 6 -18 15 -38 21 -44 5 -7 22 -40 38
-74 16 -33 38 -73 50 -87 17 -22 19 -34 13 -81 -3 -31 -13 -76 -21 -99 -8 -24
-12 -46 -10 -49 3 -2 -3 -13 -14 -24 -10 -10 -19 -26 -19 -34 0 -8 -9 -15 -20
-15 -14 0 -21 9 -26 35 -3 20 -21 54 -39 75 -39 46 -68 126 -70 190 0 25 -6
54 -12 65 -6 11 -16 52 -22 90 -7 39 -23 120 -36 180 -14 61 -27 128 -30 150
-4 22 -9 51 -12 64 -4 17 -2 22 6 17 6 -4 11 -13 11 -21z m-473 -47 c11 -13
24 -34 28 -48 4 -13 18 -33 31 -43 13 -10 24 -24 24 -31 0 -7 12 -26 26 -42
14 -16 36 -50 50 -76 13 -27 29 -48 34 -48 6 0 10 -8 10 -18 0 -10 4 -22 9
-27 5 -6 22 -33 38 -62 15 -28 40 -65 56 -82 27 -31 35 -47 17 -36 -5 3 -5 -6
1 -24 6 -17 18 -33 27 -35 17 -6 44 -71 34 -81 -3 -3 -22 -5 -43 -5 -48 0
-106 44 -88 66 13 16 6 69 -12 91 -6 7 -22 13 -35 13 -12 0 -26 5 -29 10 -3 6
-2 10 4 10 18 0 -7 50 -60 123 -31 43 -53 86 -60 116 -5 27 -21 64 -35 82 -13
18 -24 41 -24 50 0 10 -5 21 -10 24 -6 4 -7 11 -4 17 4 5 -3 23 -15 39 -11 15
-21 31 -21 34 0 13 28 3 47 -17z m383 -58 c0 -5 -5 -10 -11 -10 -5 0 -7 5 -4
10 3 6 8 10 11 10 2 0 4 -4 4 -10z m-480 -20 c0 -5 -4 -10 -10 -10 -5 0 -10 5
-10 10 0 6 5 10 10 10 6 0 10 -4 10 -10z m715 -20 c-3 -5 -10 -10 -16 -10 -5
0 -9 5 -9 10 0 6 7 10 16 10 8 0 12 -4 9 -10z m-4984 -16 c8 -9 32 -25 54 -35
22 -10 47 -23 55 -27 46 -26 64 -30 148 -27 50 2 95 6 100 9 5 3 15 0 21 -8 9
-10 4 -28 -21 -77 -18 -35 -35 -66 -38 -69 -4 -3 -15 -21 -26 -40 -10 -19 -26
-44 -36 -55 -17 -20 -20 -47 -12 -92 6 -32 70 -63 108 -52 17 5 31 7 32 6 1
-1 -4 -29 -13 -62 -8 -33 -17 -70 -20 -83 -3 -12 -9 -25 -14 -28 -5 -3 -9 -22
-9 -43 0 -25 -7 -44 -20 -56 -11 -10 -20 -24 -20 -31 0 -28 -52 -130 -81 -158
-29 -29 -30 -29 -36 -8 -3 12 -9 22 -13 22 -4 0 -10 10 -14 23 -9 35 -154 257
-168 257 -4 0 -8 9 -8 19 0 11 -4 23 -10 26 -5 3 -10 13 -10 20 0 21 -61 117
-87 138 -13 10 -23 26 -23 36 0 9 -9 24 -20 34 -26 22 -25 40 4 72 13 14 27
42 31 63 4 20 18 55 31 78 13 22 24 50 24 62 0 12 6 22 13 22 8 0 21 18 30 40
17 44 27 49 48 24z m-1206 -64 c3 -5 1 -10 -4 -10 -6 0 -11 5 -11 10 0 6 2 10
4 10 3 0 8 -4 11 -10z m772 -162 c26 -40 52 -76 57 -79 5 -4 2 -26 -7 -50 -9
-24 -22 -69 -29 -99 -7 -30 -29 -86 -50 -123 -20 -37 -40 -88 -44 -113 -5 -33
-12 -48 -27 -53 -25 -9 -45 0 -114 54 -44 34 -52 45 -53 73 0 32 39 141 74
207 9 17 16 38 16 48 0 9 4 17 9 17 5 0 16 17 25 38 29 65 81 152 92 152 1 0
24 -33 51 -72z m4718 62 c-3 -5 -10 -10 -16 -10 -5 0 -9 5 -9 10 0 6 7 10 16
10 8 0 12 -4 9 -10z m62 -177 c2 -5 -5 -20 -15 -33 -16 -20 -19 -21 -32 -6
-12 15 -11 18 8 22 13 4 19 11 15 21 -4 10 -2 14 7 11 8 -2 15 -9 17 -15z
m-3562 -43 c-3 -5 -10 -10 -16 -10 -5 0 -9 5 -9 10 0 6 7 10 16 10 8 0 12 -4
9 -10z m3565 -40 c0 -5 -4 -10 -10 -10 -5 0 -10 5 -10 10 0 6 5 10 10 10 6 0
10 -4 10 -10z m-4683 -63 c-2 -7 0 -20 5 -31 8 -14 7 -17 -4 -14 -7 3 -14 19
-16 37 -2 23 0 31 8 26 6 -4 9 -12 7 -18z m90 -14 c3 -10 18 -30 34 -44 16
-16 24 -31 19 -38 -7 -12 23 -83 47 -113 6 -7 36 -62 67 -122 31 -60 60 -114
66 -121 5 -6 7 -15 3 -18 -3 -4 1 -15 9 -24 21 -24 48 -79 48 -96 0 -17 -30
-32 -39 -20 -3 5 -46 22 -96 38 -49 17 -101 40 -115 53 -14 12 -32 22 -41 22
-9 0 -23 7 -30 16 -7 9 -37 29 -65 46 -77 43 -82 52 -57 101 12 23 24 63 28
88 3 27 15 56 28 70 12 13 20 31 19 41 -2 9 4 31 13 48 9 17 15 41 15 53 -3
34 -1 37 20 37 11 0 23 -8 27 -17z m4753 3 c0 -3 -4 -8 -10 -11 -5 -3 -10 -1
-10 4 0 6 5 11 10 11 6 0 10 -2 10 -4z m-4870 -26 c0 -5 -2 -10 -4 -10 -3 0
-8 5 -11 10 -3 6 -1 10 4 10 6 0 11 -4 11 -10z m30 -35 c0 -8 -4 -15 -10 -15
-5 0 -7 7 -4 15 4 8 8 15 10 15 2 0 4 -7 4 -15z m-662 -47 c-2 -18 5 -27 32
-40 19 -10 39 -19 43 -21 9 -3 -34 -106 -44 -107 -16 0 -68 64 -60 74 12 16
21 57 10 50 -5 -3 -9 -3 -9 0 0 2 -3 11 -6 20 -4 10 -1 16 10 16 10 0 13 6 10
15 -4 8 -1 15 6 15 6 0 10 -10 8 -22z m942 7 c0 -8 -4 -15 -10 -15 -5 0 -10 7
-10 15 0 8 5 15 10 15 6 0 10 -7 10 -15z m4745 -36 c4 -5 19 -15 33 -20 l27
-11 -25 -13 c-33 -19 -37 -18 -61 6 -16 16 -18 23 -8 35 14 17 25 18 34 3z
m604 -76 c13 -26 30 -59 37 -73 55 -102 63 -134 77 -290 2 -19 7 -47 11 -62 7
-23 5 -28 -10 -28 -25 0 -75 62 -64 80 9 14 -18 40 -52 53 -10 3 -18 15 -18
25 0 10 -9 29 -20 42 -11 13 -20 31 -20 41 0 10 -4 20 -9 23 -5 3 -14 20 -20
36 -7 22 -7 29 0 24 7 -4 9 1 4 15 -3 11 -3 26 1 33 4 6 9 23 10 37 2 14 5 35
8 46 2 11 5 33 5 49 1 27 2 28 19 13 9 -9 28 -37 41 -64z m36 67 c-3 -5 -11
-10 -16 -10 -6 0 -7 5 -4 10 3 6 11 10 16 10 6 0 7 -4 4 -10z m-495 -99 c0 -5
16 -26 35 -47 19 -20 35 -43 35 -50 0 -7 11 -34 26 -59 14 -25 28 -68 31 -94
5 -44 3 -50 -16 -56 -29 -9 -72 2 -69 18 3 17 -24 57 -40 57 -8 0 -10 5 -6 12
13 21 10 189 -3 200 -16 13 -17 28 -3 28 6 0 10 -4 10 -9z m-5525 -21 c3 -5 1
-10 -4 -10 -6 0 -11 5 -11 10 0 6 2 10 4 10 3 0 8 -4 11 -10z m-67 -44 c32
-42 82 -78 105 -78 32 0 48 -37 32 -74 -6 -16 -10 -36 -7 -45 2 -9 -1 -20 -7
-23 -6 -4 -11 -17 -11 -30 0 -12 -13 -43 -30 -69 -19 -30 -31 -65 -34 -95 -2
-26 -4 -50 -5 -54 -3 -21 -32 -4 -44 25 -8 17 -24 41 -36 51 -11 11 -21 27
-21 36 0 9 -3 20 -7 24 -4 3 -8 12 -9 19 -1 8 -13 38 -28 69 -30 63 -32 81
-11 98 11 9 12 16 5 25 -7 9 -6 16 5 25 8 7 15 20 15 30 0 10 6 23 14 29 8 7
17 23 20 36 8 32 29 32 54 1z m1259 -142 c-9 -9 -28 6 -21 18 4 6 10 6 17 -1
6 -6 8 -13 4 -17z m-928 -104 c18 -17 40 -30 48 -30 7 0 16 -6 19 -14 3 -8 20
-20 37 -27 18 -7 51 -26 75 -42 24 -16 62 -35 85 -42 23 -7 58 -20 77 -28 19
-8 62 -17 95 -20 36 -3 75 -13 96 -26 20 -12 46 -20 59 -19 28 4 36 -15 15
-35 -8 -9 -14 -20 -13 -24 1 -4 -4 -28 -11 -52 -7 -23 -10 -50 -6 -58 3 -9 -1
-23 -8 -32 -8 -9 -17 -28 -21 -43 -3 -15 -12 -40 -18 -55 -7 -15 -13 -32 -13
-38 -6 -42 -20 -92 -31 -114 -8 -14 -14 -47 -14 -73 0 -40 3 -48 18 -48 10 0
22 -4 28 -9 5 -5 20 -11 33 -13 29 -4 36 -39 14 -81 -7 -15 -13 -33 -12 -40 1
-6 0 -19 -4 -27 -3 -8 -8 -31 -10 -50 -3 -19 -12 -75 -20 -125 -8 -49 -18
-121 -21 -160 -3 -38 -11 -85 -17 -104 -6 -18 -9 -49 -5 -69 4 -26 1 -38 -11
-47 -9 -7 -18 -29 -19 -50 -2 -21 -8 -53 -15 -72 -6 -19 -8 -45 -5 -58 3 -13
2 -26 -3 -29 -4 -3 -11 -36 -15 -73 -4 -37 -12 -73 -18 -80 -5 -7 -8 -19 -5
-27 3 -7 1 -18 -5 -24 -8 -8 -1 -24 25 -56 29 -35 37 -53 37 -85 0 -22 -5 -43
-11 -46 -6 -4 -7 -19 -4 -36 6 -28 -9 -117 -25 -149 -9 -17 -71 -15 -81 2 -4
6 -16 8 -27 6 -15 -4 -28 4 -47 28 -17 22 -36 34 -51 34 -19 0 -24 5 -24 25 0
19 -5 25 -21 25 -20 0 -150 96 -233 172 -66 60 -140 118 -151 118 -20 1 -134
117 -140 143 -4 15 -11 27 -15 27 -5 0 -32 32 -60 71 l-53 70 12 55 c7 29 10
62 6 73 -3 10 1 23 8 30 10 7 12 22 7 48 -4 27 -1 51 13 83 11 25 21 59 23 75
9 68 26 135 35 135 9 0 45 -22 198 -121 25 -16 54 -29 66 -29 12 0 40 -13 63
-30 56 -40 91 -48 240 -54 55 -2 88 1 100 10 35 25 18 188 -27 261 -14 24 -29
43 -32 43 -4 0 -19 19 -34 42 -16 24 -39 51 -52 61 -13 10 -23 26 -23 36 0 10
-9 26 -20 36 -11 10 -20 23 -20 30 0 7 -9 20 -21 31 -12 10 -30 35 -40 54 -63
114 -91 158 -131 205 -16 18 -28 37 -28 42 0 6 -10 22 -21 37 -19 24 -20 31
-9 50 9 18 9 29 1 44 -7 14 -8 23 -1 27 5 3 10 17 10 31 0 13 4 24 10 24 16 0
34 41 21 49 -6 4 0 23 19 51 17 25 30 50 30 56 0 7 7 25 15 40 17 33 20 58 5
49 -8 -5 3 22 23 53 12 17 18 15 56 -18z m3861 -62 c0 -28 -4 -38 -16 -38 -16
0 -16 -9 1 -55 7 -19 7 -19 -10 -3 -15 14 -16 24 -8 72 7 36 7 59 0 63 -5 3
-4 9 4 14 18 11 29 -8 29 -53z m1779 -84 c22 -26 41 -53 41 -61 0 -13 20 -54
31 -63 9 -8 19 -79 12 -96 -3 -8 -11 -14 -17 -14 -16 0 -96 61 -96 73 0 5 -11
22 -25 39 -17 20 -25 42 -25 68 0 21 -4 42 -10 45 -5 3 -10 24 -10 46 l0 40
29 -15 c16 -9 47 -36 70 -62z m208 4 c-3 -8 -6 -5 -6 6 -1 11 2 17 5 13 3 -3
4 -12 1 -19z m-6322 -71 c12 -23 43 -82 68 -131 33 -61 44 -93 37 -100 -5 -5
-10 -20 -10 -33 0 -12 -8 -44 -19 -70 -10 -26 -16 -53 -14 -60 2 -6 -5 -30
-16 -52 -12 -22 -21 -53 -21 -68 -1 -15 -7 -41 -14 -58 l-12 -30 -52 55 c-29
30 -71 74 -93 97 l-41 43 7 67 c4 38 12 76 17 87 6 10 12 28 13 40 7 40 22 91
33 113 7 12 12 34 12 50 0 16 7 39 16 51 8 12 15 32 14 45 -3 38 -1 39 27 17
15 -12 37 -40 48 -63z m6335 27 c0 -8 -5 -12 -10 -9 -6 4 -8 11 -5 16 9 14 15
11 15 -7z m-585 -4 c3 -5 -1 -10 -10 -10 -9 0 -13 5 -10 10 3 6 8 10 10 10 2
0 7 -4 10 -10z m-6429 -37 c3 -10 12 -31 20 -46 7 -16 14 -53 14 -82 0 -30 4
-65 9 -79 7 -17 7 -26 -1 -28 -8 -3 -7 -11 2 -28 13 -24 21 -84 20 -149 -1
-18 8 -50 19 -71 11 -21 19 -58 19 -87 1 -27 8 -69 16 -94 9 -24 16 -60 16
-79 0 -22 11 -52 30 -80 34 -52 38 -97 15 -174 -8 -27 -15 -67 -15 -88 0 -22
-5 -48 -11 -59 -6 -11 -12 -44 -15 -72 -6 -84 -25 -203 -34 -217 -6 -9 -12 -8
-27 6 -10 11 -35 33 -56 51 -20 17 -56 61 -80 96 -50 72 -103 127 -124 127 -8
0 -20 14 -27 31 l-13 31 -11 -28 c-7 -16 -17 -37 -24 -46 -10 -14 -9 -21 9
-40 16 -17 19 -28 12 -39 -6 -12 -4 -21 6 -29 8 -7 15 -18 15 -24 0 -6 25 -40
55 -76 30 -36 59 -74 64 -85 5 -11 31 -45 59 -76 80 -92 90 -110 84 -149 -2
-19 -9 -40 -13 -46 -5 -6 -8 -32 -7 -58 2 -35 6 -45 17 -41 11 4 9 0 -3 -14
-10 -11 -16 -26 -13 -33 2 -7 -2 -25 -9 -39 -7 -15 -13 -40 -13 -55 1 -16 -6
-58 -15 -93 -16 -62 -23 -107 -30 -197 -2 -23 -9 -51 -15 -62 -6 -12 -10 -49
-9 -82 2 -54 5 -62 28 -73 37 -18 37 -50 0 -77 -28 -20 -33 -21 -48 -7 -22 19
-85 52 -94 49 -5 -1 -8 4 -8 12 0 9 -7 12 -18 9 -10 -2 -24 3 -31 11 -8 9 -20
16 -27 16 -8 0 -14 4 -14 10 0 5 -20 15 -45 21 -25 6 -45 15 -45 20 0 5 -25
23 -55 40 -56 32 -65 43 -42 52 15 5 24 178 17 312 -1 17 2 56 6 87 3 32 3 65
-1 75 -7 16 -7 44 -3 163 1 14 0 69 -2 123 -3 75 -1 100 9 107 9 5 12 18 8 38
-3 16 -2 33 3 38 5 5 12 47 15 94 6 94 14 149 40 260 10 41 18 84 19 95 1 11
7 31 13 45 6 14 16 48 22 75 7 28 23 75 35 105 13 30 28 69 34 85 5 17 16 46
23 65 6 19 23 58 36 86 13 28 21 58 18 66 -4 9 -2 19 4 23 6 3 11 15 11 25 0
11 9 34 20 52 11 18 20 45 20 59 0 15 12 61 26 103 14 42 23 80 20 85 -3 5 1
11 9 15 8 3 20 17 27 31 13 29 26 32 34 8z m7114 10 c-1 -14 -49 -43 -55 -33
-3 5 7 16 22 24 33 18 33 18 33 9z m-2104 -89 c7 -95 6 -108 -7 -140 l-11 -29
-10 29 c-7 20 -7 30 1 35 7 5 8 18 3 37 -4 16 -7 45 -5 64 2 19 3 48 3 64 1
58 21 10 26 -60z m1458 52 c7 -27 -11 -96 -24 -96 -6 0 -10 13 -10 29 0 17 -4
33 -10 36 -14 9 -13 33 2 49 17 18 35 10 42 -18z m-664 -52 c0 -8 -4 -12 -10
-9 -5 3 -10 10 -10 16 0 5 5 9 10 9 6 0 10 -7 10 -16z m-309 -16 c3 -77 -4
-215 -12 -230 -16 -31 -22 -228 -8 -278 13 -48 13 -62 7 -269 -3 -83 -9 -136
-16 -139 -13 -4 -19 26 -32 163 -6 61 -13 118 -16 128 -5 17 -13 74 -17 127
-1 14 -6 31 -11 38 -4 7 -5 16 -2 19 3 3 0 15 -6 27 -18 33 -46 233 -35 252 7
12 6 15 -2 10 -7 -5 -11 3 -11 23 0 17 5 31 10 31 6 0 10 9 10 20 0 11 -4 20
-9 20 -5 0 -12 7 -15 16 -4 10 -2 13 6 8 7 -5 9 1 6 19 -5 26 -4 26 61 30 36
2 72 4 79 5 6 1 12 -8 13 -20z m1819 -18 c12 -8 11 -10 -7 -10 -12 0 -25 5
-28 10 -8 13 15 13 35 0z m-81 -26 c5 4 12 2 16 -4 3 -5 -1 -10 -9 -10 -9 0
-16 -3 -16 -7 0 -13 66 -83 78 -83 15 0 57 -86 65 -132 4 -27 -2 -56 -23 -109
-16 -41 -32 -75 -37 -76 -12 -4 -35 44 -38 81 -3 31 -31 60 -48 49 -5 -3 -7 0
-5 8 3 8 11 13 17 12 15 -4 14 8 -8 96 -31 123 -41 182 -35 193 5 7 12 5 20
-6 7 -10 17 -15 23 -12z m-788 -57 c-8 -8 -11 -4 -11 14 0 33 14 47 18 19 2
-12 -1 -27 -7 -33z m-2531 39 c0 -3 -4 -8 -10 -11 -5 -3 -10 -1 -10 4 0 6 5
11 10 11 6 0 10 -2 10 -4z m-505 -16 c-3 -5 -13 -10 -21 -10 -8 0 -12 5 -9 10
3 6 13 10 21 10 8 0 12 -4 9 -10z m420 -10 c10 -11 13 -20 7 -20 -6 0 -12 4
-14 9 -2 6 -21 6 -45 2 -48 -9 -61 -4 -35 15 25 20 66 17 87 -6z m500 10 c-3
-5 -13 -10 -21 -10 -8 0 -14 5 -14 10 0 6 9 10 21 10 11 0 17 -4 14 -10z
m-360 -10 c-3 -5 -10 -10 -16 -10 -5 0 -9 5 -9 10 0 6 7 10 16 10 8 0 12 -4 9
-10z m2685 -10 c0 -5 -4 -10 -10 -10 -5 0 -10 5 -10 10 0 6 5 10 10 10 6 0 10
-4 10 -10z m-1345 -90 c3 -5 2 -10 -4 -10 -5 0 -13 5 -16 10 -3 6 -2 10 4 10
5 0 13 -4 16 -10z m-5065 -66 c0 -9 12 -28 28 -42 43 -42 64 -79 48 -85 -8 -3
-16 -29 -20 -60 -5 -35 -14 -61 -27 -73 -18 -16 -20 -16 -39 1 -13 12 -18 25
-14 38 4 14 -1 25 -17 38 -23 17 -23 18 -5 38 17 19 18 27 9 68 -8 33 -8 53 0
70 12 26 37 31 37 7z m6664 -13 c8 -12 -12 -125 -23 -129 -5 -2 -7 -12 -4 -22
3 -11 1 -20 -4 -20 -20 0 -22 13 -8 46 13 32 12 36 -10 62 -16 19 -21 33 -15
42 6 9 4 17 -3 22 -7 4 4 8 25 8 20 0 39 -4 42 -9z m-5957 -86 c7 -11 25 -45
40 -75 15 -30 40 -71 54 -90 15 -19 29 -45 33 -57 20 -63 85 -169 112 -182 16
-8 23 -16 17 -18 -9 -3 -9 -12 -2 -30 10 -28 3 -46 -10 -25 -4 7 -15 10 -25 6
-10 -4 -26 1 -39 13 -25 23 -56 37 -74 34 -7 -1 -13 2 -13 7 0 5 -12 16 -27
24 -47 23 -167 105 -186 125 -19 22 -18 76 2 126 6 16 11 39 11 53 0 14 7 36
16 49 9 14 14 34 11 45 -3 11 0 20 6 20 6 0 7 3 4 6 -3 4 -2 15 4 26 9 17 11
17 32 -9 12 -16 27 -37 34 -48z m1503 45 c0 -5 -2 -10 -4 -10 -3 0 -8 5 -11
10 -3 6 -1 10 4 10 6 0 11 -4 11 -10z m-2260 -40 c0 -5 -7 -10 -15 -10 -8 0
-15 5 -15 10 0 6 7 10 15 10 8 0 15 -4 15 -10z m6896 -147 c1 -105 4 -135 19
-218 l7 -40 -26 30 c-14 17 -24 34 -22 40 1 5 -9 29 -24 52 -25 38 -26 46 -17
95 5 29 13 60 17 68 4 9 11 35 15 59 13 75 29 30 31 -86z m-671 47 c-3 -5 -11
-10 -16 -10 -6 0 -7 5 -4 10 3 6 11 10 16 10 6 0 7 -4 4 -10z m-5890 -122
c104 -109 99 -99 82 -160 -27 -91 -42 -153 -39 -160 1 -5 -2 -8 -7 -8 -4 0 -4
-23 1 -51 6 -36 6 -54 -1 -59 -6 -3 -14 -34 -17 -68 -4 -34 -10 -62 -15 -62
-11 0 -39 30 -39 43 0 6 -9 20 -19 31 -10 12 -33 48 -51 81 -18 33 -40 69 -49
80 -29 32 -32 54 -16 103 9 25 19 50 22 56 4 5 8 20 9 32 1 12 11 40 22 63 11
22 16 41 11 41 -5 0 -9 7 -9 15 0 20 31 95 39 95 4 0 38 -33 76 -72z m6924
-19 c-18 -11 -39 -11 -39 0 0 11 31 20 44 13 4 -2 2 -8 -5 -13z m-1019 -15 c0
-8 -5 -12 -10 -9 -6 4 -8 11 -5 16 9 14 15 11 15 -7z m-5250 -44 c0 -5 -4 -10
-10 -10 -5 0 -10 5 -10 10 0 6 5 10 10 10 6 0 10 -4 10 -10z m5184 -14 c-3 -7
0 -25 5 -39 8 -19 7 -27 0 -27 -7 0 -9 -11 -7 -25 3 -14 1 -25 -3 -25 -5 0 -9
-4 -9 -10 0 -5 7 -10 15 -10 20 0 19 -18 -1 -22 -10 -2 -18 -16 -20 -38 -15
-147 -26 -210 -35 -204 -5 3 -9 19 -9 35 0 16 -14 65 -31 109 l-30 80 22 47
c37 82 51 107 72 130 20 23 40 22 31 -1z m-1124 -21 c0 -13 4 -34 9 -47 4 -13
5 -32 1 -43 -4 -11 -4 -27 1 -36 5 -10 10 -61 11 -114 3 -82 6 -98 22 -107 15
-8 16 -12 5 -19 -10 -6 -14 -29 -14 -73 0 -36 4 -62 9 -58 5 3 7 -2 3 -11 -3
-8 -1 -46 4 -84 6 -37 11 -114 12 -171 2 -60 7 -106 13 -110 6 -4 11 -24 12
-45 1 -20 6 -45 11 -55 5 -9 12 -42 16 -72 3 -30 9 -64 12 -75 5 -19 4 -19
-18 2 -30 27 -74 44 -95 36 -10 -4 -17 1 -21 16 -3 11 -9 21 -13 21 -4 0 -10
35 -13 78 -7 83 -24 175 -38 207 -5 11 -8 45 -6 75 2 30 0 67 -4 83 -4 15 -4
27 1 27 11 0 18 79 9 117 -3 17 -2 36 3 41 10 10 17 71 22 183 2 36 6 71 10
78 4 6 0 14 -8 17 -20 8 -21 24 -1 24 15 0 20 31 16 97 -2 18 0 37 4 43 10 16
25 1 25 -25z m-4945 -6 c10 -14 1 -21 -19 -13 -9 3 -13 10 -10 15 7 12 21 11
29 -2z m4865 1 c0 -5 -5 -10 -11 -10 -5 0 -7 5 -4 10 3 6 8 10 11 10 2 0 4 -4
4 -10z m-110 -40 c-20 -13 -33 -13 -25 0 3 6 14 10 23 10 15 0 15 -2 2 -10z
m-70 -30 c0 -5 -4 -10 -10 -10 -5 0 -10 5 -10 10 0 6 5 10 10 10 6 0 10 -4 10
-10z m180 0 c0 -5 -2 -10 -4 -10 -3 0 -8 5 -11 10 -3 6 -1 10 4 10 6 0 11 -4
11 -10z m1960 -26 c0 -14 -4 -23 -10 -19 -5 3 -10 15 -10 26 0 10 5 19 10 19
6 0 10 -12 10 -26z m-2185 6 c3 -5 -1 -10 -10 -10 -9 0 -13 5 -10 10 3 6 8 10
10 10 2 0 7 -4 10 -10z m2764 -53 c29 -23 57 -52 62 -66 13 -34 14 -87 2 -103
-11 -14 -29 -81 -49 -182 -11 -56 -51 -37 -61 30 -3 21 -16 51 -30 65 -22 24
-23 33 -23 130 1 57 1 121 1 142 -1 35 1 38 22 31 12 -3 46 -25 76 -47z
m-2063 -102 c-3 -8 0 -15 6 -17 20 -7 2 -134 -23 -162 -12 -13 -12 46 0 77 5
13 5 30 1 37 -5 8 -5 21 0 31 6 11 4 23 -5 35 -10 14 -10 22 -2 32 8 11 12 10
20 -3 5 -9 6 -22 3 -30z m1284 5 c0 -5 -7 -10 -15 -10 -8 0 -15 5 -15 10 0 6
7 10 15 10 8 0 15 -4 15 -10z m665 -40 c3 -5 1 -10 -4 -10 -6 0 -11 5 -11 10
0 6 2 10 4 10 3 0 8 -4 11 -10z m-2625 -50 c0 -5 -9 -10 -20 -10 -11 0 -20 5
-20 10 0 6 9 10 20 10 11 0 20 -4 20 -10z m1990 -11 c0 -5 -4 -9 -10 -9 -5 0
-10 7 -10 16 0 8 5 12 10 9 6 -3 10 -10 10 -16z m-6581 -75 c7 5 11 -4 11 -22
0 -19 17 -51 50 -95 27 -36 54 -69 60 -72 7 -4 8 -19 5 -36 -4 -16 -3 -28 2
-27 4 2 8 -1 8 -7 0 -5 -7 -10 -15 -10 -9 0 -16 -12 -18 -30 -2 -16 -8 -35
-12 -40 -5 -6 -9 -42 -9 -79 0 -113 -11 -196 -27 -196 -8 0 -14 6 -14 14 0 8
-11 17 -24 20 -14 3 -29 18 -36 36 -7 16 -19 30 -28 30 -8 0 -35 20 -59 45
-40 42 -42 48 -40 92 2 27 9 58 15 70 7 12 15 50 18 85 6 72 7 86 23 187 6 40
14 78 18 84 4 6 18 -3 34 -22 15 -18 32 -30 38 -27z m6116 -20 c14 -14 24 -28
22 -31 -5 -5 -57 41 -57 51 0 11 9 6 35 -20z m-6 -219 c-2 -90 -7 -167 -12
-171 -13 -13 -37 30 -32 56 10 47 10 55 -2 53 -16 -4 -16 2 -3 27 12 22 21 90
29 215 2 19 2 19 12 2 7 -12 10 -78 8 -182z m-857 129 c-3 -17 -8 -22 -15 -15
-11 11 -3 41 11 41 5 0 7 -12 4 -26z m1404 -71 c-10 -10 -19 5 -10 18 6 11 8
11 12 0 2 -7 1 -15 -2 -18z m-2041 -33 c3 -5 -1 -10 -9 -10 -9 0 -16 5 -16 10
0 6 4 10 9 10 6 0 13 -4 16 -10z m-5040 -10 c4 -6 -6 -10 -22 -9 -25 0 -26 1
-8 9 11 5 21 9 22 9 1 1 5 -3 8 -9z m210 0 c-3 -5 -12 -7 -20 -3 -21 7 -19 13
6 13 11 0 18 -4 14 -10z m5430 -20 c3 -5 1 -10 -4 -10 -6 0 -11 5 -11 10 0 6
2 10 4 10 3 0 8 -4 11 -10z m0 -30 c3 -5 1 -10 -4 -10 -6 0 -11 5 -11 10 0 6
2 10 4 10 3 0 8 -4 11 -10z m185 -46 c0 -8 -5 -12 -10 -9 -6 4 -8 11 -5 16 9
14 15 11 15 -7z m1760 -59 c25 -51 19 -95 -12 -95 -11 0 -16 4 -12 11 3 6 2
21 -3 32 -19 42 -32 90 -27 98 10 16 34 -4 54 -46z m-2590 35 c0 -5 -5 -10
-11 -10 -5 0 -7 5 -4 10 3 6 8 10 11 10 2 0 4 -4 4 -10z m690 -16 c0 -2 -7 -4
-15 -4 -8 0 -15 4 -15 10 0 5 7 7 15 4 8 -4 15 -8 15 -10z m670 6 c-19 -13
-30 -13 -30 0 0 6 10 10 23 10 18 0 19 -2 7 -10z m-1375 -20 c-3 -5 -12 -10
-18 -10 -7 0 -6 4 3 10 19 12 23 12 15 0z m1719 -47 c9 -32 19 -63 22 -69 3
-7 -13 -16 -39 -23 -25 -6 -51 -13 -60 -17 -12 -4 -14 -1 -10 15 3 11 11 25
18 31 8 6 12 17 9 24 -3 7 2 19 11 26 8 7 15 25 15 41 0 47 15 33 34 -28z
m-5992 20 c12 -10 39 -34 59 -53 115 -107 173 -155 188 -155 9 0 16 -7 16 -15
0 -8 22 -32 48 -53 27 -21 65 -56 84 -78 19 -21 41 -39 48 -39 25 0 75 -32 97
-63 13 -18 41 -51 63 -73 22 -23 46 -48 53 -55 7 -8 25 -25 39 -39 l25 -25
-28 -6 c-19 -4 -41 1 -63 13 -58 33 -151 60 -184 55 -41 -6 -114 16 -161 48
-20 14 -42 25 -49 25 -7 0 -29 9 -50 20 -21 11 -59 28 -85 36 -26 9 -58 24
-72 34 -14 10 -40 21 -58 25 -28 6 -33 11 -28 28 3 11 -2 33 -10 49 -8 15 -11
28 -6 28 8 0 10 15 14 143 1 31 6 57 11 57 5 0 7 12 4 26 -4 21 11 84 20 84 2
0 13 -8 25 -17z m5058 -113 c0 -20 3 -39 6 -42 3 -3 7 -34 10 -69 2 -35 6 -83
8 -105 l3 -42 -56 -8 c-31 -5 -66 -8 -77 -6 -24 3 -38 37 -24 61 5 9 4 23 -1
33 -5 10 -6 18 -2 18 4 0 8 29 8 65 0 47 -4 68 -15 75 -23 14 6 60 39 60 14 1
37 7 51 15 22 12 26 12 38 -2 6 -9 12 -33 12 -53z m196 -58 c-3 -9 -6 -47 -7
-85 -2 -55 -4 -65 -15 -56 -8 7 -14 31 -14 60 0 26 -4 59 -9 72 -5 13 -7 43
-4 66 l6 42 24 -41 c13 -22 22 -48 19 -58z m-799 82 c-3 -3 -12 -4 -19 -1 -8
3 -5 6 6 6 11 1 17 -2 13 -5z m1413 -54 c0 -5 -5 -10 -11 -10 -5 0 -7 5 -4 10
3 6 8 10 11 10 2 0 4 -4 4 -10z m-753 -26 c-3 -3 -12 -4 -19 -1 -8 3 -5 6 6 6
11 1 17 -2 13 -5z m491 -66 c-2 -13 -11 -24 -20 -26 -14 -3 -15 0 -5 22 15 32
30 34 25 4z m-6048 2 c0 -5 4 -10 10 -10 5 0 30 -22 55 -49 25 -27 63 -61 85
-76 22 -15 40 -34 40 -41 0 -8 7 -14 15 -14 21 0 29 -24 15 -49 -7 -14 -7 -21
-1 -21 7 0 7 -9 1 -24 -5 -15 -5 -37 0 -55 12 -42 -3 -47 -42 -18 -18 14 -42
27 -53 29 -12 2 -39 33 -66 73 -41 62 -50 70 -75 67 -27 -2 -27 -1 -11 11 22
18 13 45 -19 53 -29 8 -30 15 -3 32 14 9 20 22 18 40 -1 15 2 35 6 45 8 18 25
23 25 7z m5590 -10 c0 -5 -4 -10 -10 -10 -5 0 -10 5 -10 10 0 6 5 10 10 10 6
0 10 -4 10 -10z m-280 -20 c0 -5 -4 -10 -10 -10 -5 0 -10 5 -10 10 0 6 5 10
10 10 6 0 10 -4 10 -10z m36 -17 c-10 -10 -19 5 -10 18 6 11 8 11 12 0 2 -7 1
-15 -2 -18z m-6101 -53 c3 -5 -3 -10 -14 -10 -12 0 -21 5 -21 10 0 6 6 10 14
10 8 0 18 -4 21 -10z m6055 -15 c0 -2 -9 -9 -19 -14 -14 -8 -22 -7 -31 4 -11
13 -8 15 19 15 17 0 31 -2 31 -5z m50 -24 c0 -5 -7 -11 -15 -15 -15 -5 -20 5
-8 17 9 10 23 9 23 -2z m-4330 -75 c0 -3 -4 -8 -10 -11 -5 -3 -10 -1 -10 4 0
6 5 11 10 11 6 0 10 -2 10 -4z m-985 -96 c28 -26 60 -51 73 -55 12 -4 33 -24
47 -44 13 -21 42 -52 64 -70 39 -31 74 -84 63 -95 -3 -3 -20 -6 -38 -6 -35 0
-44 -8 -49 -43 -1 -12 -4 -29 -6 -37 -3 -12 6 -15 41 -15 25 0 61 -6 80 -12
68 -23 155 -26 193 -8 20 9 34 22 31 29 -3 7 0 25 5 39 7 17 7 27 1 27 -6 0
-10 7 -10 15 0 9 -9 15 -22 15 -27 0 -68 37 -68 62 0 9 -9 32 -20 50 -11 18
-20 43 -20 55 0 12 -4 25 -10 28 -15 9 -12 25 4 25 7 0 27 -7 42 -15 16 -8 36
-15 45 -15 9 0 19 -3 23 -7 3 -4 13 -8 21 -9 8 -1 27 -11 42 -21 15 -11 48
-28 73 -37 25 -10 50 -22 56 -27 18 -14 106 -39 141 -39 18 0 61 -10 94 -21
40 -14 85 -21 128 -21 37 0 100 -9 144 -20 l77 -21 0 -36 c0 -20 -4 -62 -10
-95 -8 -52 -7 -62 10 -86 11 -15 24 -38 29 -52 9 -23 5 -26 -72 -63 -80 -37
-172 -55 -285 -54 -21 0 -31 -4 -27 -11 3 -6 -3 -10 -15 -10 -12 0 -31 -5 -43
-12 -23 -12 -48 -16 -137 -24 -30 -3 -64 -9 -75 -14 -37 -17 -100 -29 -187
-36 -78 -6 -89 -5 -116 15 -17 11 -39 21 -51 21 -11 0 -37 11 -57 25 -28 19
-45 24 -68 20 -27 -5 -33 -2 -49 24 -15 26 -25 30 -75 36 -97 11 -120 24 -167
90 -48 68 -63 105 -43 105 21 0 42 41 44 85 1 22 5 54 8 70 4 17 7 46 7 65 1
19 6 41 11 48 7 8 7 17 -2 27 -18 22 -16 122 4 153 4 7 5 24 2 38 -6 24 -5 25
31 18 26 -4 53 -21 88 -54z m-815 -30 c0 -5 -4 -10 -9 -10 -6 0 -13 5 -16 10
-3 6 1 10 9 10 9 0 16 -4 16 -10z m1401 -53 c-13 -13 -26 -3 -16 12 3 6 11 8
17 5 6 -4 6 -10 -1 -17z"/>
<path d="M6685 5850 c3 -5 8 -10 11 -10 2 0 4 5 4 10 0 6 -5 10 -11 10 -5 0
-7 -4 -4 -10z"/>
<path d="M1378 1748 c-21 -21 -21 -22 -7 -87 15 -69 29 -74 25 -8 -3 51 -2 54
20 51 23 -2 36 8 47 37 9 26 -61 31 -85 7z"/>
<path d="M4205 8499 c-62 -61 -105 -96 -130 -105 -35 -13 -109 -113 -100 -136
3 -8 29 -25 58 -37 45 -20 56 -21 89 -12 45 14 68 45 75 101 3 22 9 40 13 40
14 0 50 89 50 124 0 31 -3 36 -22 36 -13 -1 -27 -5 -33 -11z"/>
<path d="M3590 7752 c-51 -23 -103 -67 -116 -98 -12 -29 -12 -39 -1 -66 31
-75 84 -84 185 -33 60 30 77 43 88 72 14 31 13 38 -3 71 -10 20 -29 42 -43 49
-27 14 -85 16 -110 5z"/>
<path d="M3200 6664 c0 -8 5 -12 10 -9 6 3 10 10 10 16 0 5 -4 9 -10 9 -5 0
-10 -7 -10 -16z"/>
<path d="M2436 6048 c-2 -7 -9 -29 -16 -48 -22 -57 -17 -93 19 -137 36 -45 64
-47 109 -9 62 53 60 121 -6 173 -39 31 -100 43 -106 21z"/>
<path d="M1957 5537 c-38 -6 -66 -15 -65 -21 1 -6 -4 -22 -12 -36 -32 -58 -13
-94 72 -132 95 -43 183 40 140 131 -15 33 -50 72 -62 69 -3 0 -35 -6 -73 -11z"/>
<path d="M1735 4963 c-16 -9 -41 -17 -55 -17 -20 -1 -28 -10 -42 -50 -16 -40
-16 -51 -6 -65 22 -27 50 -81 42 -81 -15 0 16 -24 33 -25 10 -1 30 -6 45 -10
24 -6 28 -3 43 31 8 20 25 44 36 52 30 21 50 73 40 107 -14 56 -86 86 -136 58z"/>
<path d="M781 2764 c-17 -14 -31 -35 -31 -46 0 -10 -5 -28 -10 -39 -9 -16 -3
-34 28 -93 26 -50 36 -79 30 -89 -13 -25 45 -67 92 -67 66 0 114 34 79 56 -8
5 -8 8 0 14 8 4 9 15 3 31 -8 21 -4 29 33 61 42 37 43 39 40 94 -2 31 -8 61
-13 66 -6 6 -27 4 -56 -6 -61 -21 -62 -21 -83 14 -23 39 -68 41 -112 4z"/>
<path d="M563 1898 c-11 -13 -23 -43 -26 -68 -5 -38 -1 -52 30 -101 53 -87 63
-93 129 -85 68 8 125 36 149 72 14 22 16 36 9 73 l-9 46 -64 1 c-44 0 -66 5
-69 14 -3 7 -19 25 -36 41 -39 36 -84 38 -113 7z"/>
</g>
</svg>
