<?xml version="1.0" encoding="UTF-8" standalone="no"?>
<svg
   xmlns:dc="http://purl.org/dc/elements/1.1/"
   xmlns:cc="http://creativecommons.org/ns#"
   xmlns:rdf="http://www.w3.org/1999/02/22-rdf-syntax-ns#"
   xmlns:svg="http://www.w3.org/2000/svg"
   xmlns="http://www.w3.org/2000/svg"
   xmlns:sodipodi="http://sodipodi.sourceforge.net/DTD/sodipodi-0.dtd"
   xmlns:inkscape="http://www.inkscape.org/namespaces/inkscape"
   version="1.0"
   width="163.000000pt"
   height="121.000000pt"
   viewBox="0 0 163.000000 121.000000"
   preserveAspectRatio="xMidYMid meet"
   id="svg3422"
   inkscape:version="0.91 r13725"
   sodipodi:docname="logo.svg">
  <defs
     id="defs3442" />
  <sodipodi:namedview
     pagecolor="#ffffff"
     bordercolor="#666666"
     borderopacity="1"
     objecttolerance="10"
     gridtolerance="10"
     guidetolerance="10"
     inkscape:pageopacity="0"
     inkscape:pageshadow="2"
     inkscape:window-width="1920"
     inkscape:window-height="1056"
     id="namedview3440"
     showgrid="false"
     inkscape:zoom="5.6528926"
     inkscape:cx="101.875"
     inkscape:cy="75.625"
     inkscape:window-x="0"
     inkscape:window-y="24"
     inkscape:window-maximized="1"
     inkscape:current-layer="svg3422" />
  <g
     transform="translate(0.000000,121.000000) scale(0.100000,-0.100000)"
     id="g3426"
     stroke="none"
     fill="#000000"
     fill-opacity="0.75"
     >
    <path
       d="M 745,1082 C 701,1039 594,937 506,855 419,772 333,690 314,673 c -18,-18 -37,-33 -42,-33 -5,0 -12,30 -15,68 -11,108 -9,144 9,157 22,16 10,53 -19,57 -19,3 -22,9 -22,44 -1,23 -7,49 -15,59 -12,15 -15,15 -26,-7 -8,-13 -14,-41 -14,-63 -1,-38 -2,-39 -16,-20 -8,11 -12,25 -9,33 3,7 0,10 -6,6 -6,-3 -8,-15 -6,-26 4,-14 -1,-22 -19,-28 -29,-11 -30,-24 -4,-50 11,-11 20,-32 21,-47 0,-16 -4.07602,-359.23392 -1.07602,-351.23392 C 131.92398,479.76608 144,831 146,839 c 3,9 8,11 14,5 15,-15 16,-532 1,-547 -15,-15 -16.67836,8.49123 -22.67836,46.49123 -4,28 -2.73681,435.37427 -17.32164,-14.49123 -1,-26 -6,-38 -18,-41 -15,-4 -18,-16 -18,-64 l 0,-59 117,-3 118,-3 0,66 c 0,63 -1,65 -25,65 -24,0 -25,3 -25,58 0,31 -3,91 -5,134 C 256,629 244,635 545,326 692,174 817,50 822,50 c 5,0 91,75 191,168 259,238 364,332 370,332 3,0 8,-17 10,-37 2,-21 4,3 4,52 0,50 0.4152,170.15789 -2.5848,159.15789 C 1391.4152,713.15789 1385,611 1381,607 c -7,-7 -372,361 -483,487 -66,74 -63,74 -153,-12 z M 972,928 c 75,-79 181,-190 237,-248 l 101,-105 -57,-55 C 1168,439 830,135 821,132 817,131 766,183 708,247 649,312 545,420 476,488 L 350,612 518,774 c 215,210 306,295 313,296 3,0 67,-64 141,-142 z M 141,900 c 26,-14 24,-32 -3,-28 -13,2 -24,11 -26,21 -4,20 2,21 29,7 z M 126,262 c 19,-13 44,-56 44,-75 0,-17 -5,-19 -32,-13 -42,8 -46,14 -41,59 5,38 10,42 29,29 z"
       id="path3428"
       inkscape:connector-curvature="0"
       sodipodi:nodetypes="cccsccccscccccccscccsscccscccsssccscscssscccccccccccccccscssccs" />
    <path
       d="M693 863 c-23 -3 -45 -18 -78 -55 -39 -43 -45 -56 -45 -94 0 -62 30 -93 98 -101 28 -3 52 -9 52 -13 0 -4 11 -19 25 -35 22 -23 25 -33 20 -69 -11 -73 52 -174 100 -159 26 7 83 55 84 69 1 6 12 20 26 32 22 19 25 28 19 56 -5 30 0 41 40 90 55 68 57 84 14 88 -29 3 -37 11 -65 63 -18 33 -34 64 -36 69 -1 4 -32 9 -67 11 -50 2 -66 6 -68 18 -3 15 -54 39 -76 35 -6 0 -25 -3 -43 -5z"
       id="path3430" />
    <path
       d="M1024 435 c-4 -8 -12 -15 -20 -15 -7 0 -18 -8 -23 -18 -11 -21 3 -52 24 -52 17 0 59 76 50 90 -9 15 -25 12 -31 -5z"
       id="path3432" />
    <path
       d="m 1461,1050 c -1,-9 -6,-21 -13,-28 -7,-7 -11,-31 -9,-53 3,-44 -12,-47 -29,-5 l -9,21 0,-22 c -1,-12 4,-25 9,-28 19,-12 -1,-25 -36,-25 -29,0 -34,-3 -34,-24 0,-14 5,-28 12,-32 8,-5 9,-2 5,10 -10,26 0,35 30,27 37,-10 42,-31 6,-32 -15,0 -22,-3 -15,-6 6,-2 13,-23 13,-46 1,-26 1.5848,-104.17544 4.5848,-89.17544 7,46 13.4152,125.17544 27.4152,114.17544 10,-9 13,-70 11,-269 0,-142 -2,-261 -3,-265 0,-5 -20.6863,-8.93264 -29.4912,-2.33918 -11.3392,8.49123 -4.4328,5.58479 -6.4328,51.58479 L 1392.6608,506.80117 1381,332.92398 c -4,-40 -10,-47.92398 -21,-47.92398 -12,0 -14,-12 -11,-65 2,-36 4,-66 5,-67 1,-2 157,-5 189,-4 14,1 17,11 17,65 0,54 -3,64 -19,69 -17,4 -19,18 -25,128 -3,68 -7,194 -8,279 -3,154 -3,155 20,158 17,3 22,10 22,33 0,24 -4,29 -25,29 -20,0 -25,5 -25,24 0,14 -5,28 -10,31 -6,4 -9,14 -6,23 3,10 -1,31 -9,47 -7,17 -14,23 -14,15 z m -56,-833 c 21,-42 19,-47 -15,-47 -29,0 -30,1 -30,51 0,44 2,50 15,39 8,-7 21,-26 30,-43 z"
       id="path3434"
       inkscape:connector-curvature="0"
       sodipodi:nodetypes="cscccccssccccccccccscccscccsccccssscccccsscc" />
  </g>
</svg>
